<?xml version="1.0" encoding="utf-8"?>
<!-- Generator: Adobe Illustrator 19.2.1, SVG Export Plug-In . SVG Version: 6.00 Build 0)  -->
<svg version="1.1" id="Layer_1" xmlns="http://www.w3.org/2000/svg" xmlns:xlink="http://www.w3.org/1999/xlink" x="0px" y="0px"
	 width="387px" height="412.5px" viewBox="0 0 387 412.5" style="enable-background:new 0 0 387 412.5;" xml:space="preserve">
<style type="text/css">
	.st0{fill:#010101;}
	.st1{fill:#FFFFFF;}
	.st2{fill:#333333;}
	.st3{fill:#262626;}
	.st4{stroke:#000000;stroke-miterlimit:10;}
	.st5{fill:none;stroke:#CCCCCC;stroke-miterlimit:10;}
	.st6{fill:#080404;}
	.st7{fill:#AFAFAC;}
</style>
<g id="_x31_UO9mr.tif">
	<g>
		<path d="M22.3,30.9c0-3.4,0-6.8,0-10.3c1,0,2,0,3.1,0c0.1-1.3,0.2-2.5,0.3-3.9c-1.1,0-2.3,0-3.4,0c0-0.8,0-1.6,0-2.4
			c0-0.6,0.5-0.9,1.2-0.9c0.6,0,1.2,0,1.8,0c0.1,0,0.3,0,0.4,0c0-0.1,0-0.2,0-0.3c0-1.1,0-2.2,0-3.3c0-0.2,0-0.3-0.3-0.3
			c-1.4,0-2.8,0-4.2,0.1c-1.5,0.1-2.7,0.7-3.3,2.2c-0.2,0.5-0.3,1.1-0.3,1.7c-0.1,0.9,0,1.9,0,2.8c0,0.1,0,0.3,0,0.4
			c-0.8,0-1.6,0-2.4,0c0,1.3,0,2.6,0,3.9c0.8,0,1.7,0,2.5,0c0,3.7,0,7.5,0,11.2c-5.2,0.5-12.8-2.9-15-11C0.4,13,5,4.8,13.1,2.6
			c8.2-2.2,16.3,2.7,18.4,10.7C33.5,21.2,28.9,28.6,22.3,30.9z"/>
	</g>
</g>
<g id="Z3qONP.tif">
	<g>
		<path d="M51,2.1C59.3,2,65.9,8.7,65.9,17S59.3,31.9,51,32c-8.2,0-14.9-6.7-15-14.9C36,8.8,42.7,2.1,51,2.1z M54.4,15.3
			c0.5,1.8,0.2,3.4-1.4,4.5c-1.2,0.8-2.5,0.8-3.7,0c-1.7-1.1-2-2.6-1.4-4.5c-1.4,0-2.8,0-4.2,0c0,0.1,0,0.2,0,0.3c0,1.5,0,3.1,0,4.6
			c0,2.1,1.5,3.7,3.7,3.8c2.5,0,5,0,7.5,0c2,0,3.5-1.6,3.6-3.5c0-0.9,0-1.9,0-2.8c0-0.8,0-1.6,0-2.4C57.1,15.3,55.8,15.3,54.4,15.3z
			 M58.4,14c0-0.4,0-0.7,0-1.1c-0.1-2.1-1.6-3.6-3.7-3.6c-2.4,0-4.9,0-7.3,0c-2.2,0-4,1.9-3.6,4.7h0.1c1.7,0,3.4,0,5.1,0
			c0.1,0,0.2-0.1,0.3-0.1c1.2-0.7,2.5-0.8,3.7,0c0.1,0.1,0.2,0.1,0.3,0.1C55,14,56.7,14,58.4,14z M51.1,18.2c0.8,0,1.4-0.6,1.4-1.4
			s-0.7-1.5-1.4-1.5c-0.8,0-1.5,0.7-1.5,1.5C49.7,17.6,50.3,18.2,51.1,18.2z"/>
		<path d="M55.2,13.2c-0.2,0-0.4,0-0.6,0c-0.3,0-0.4-0.1-0.4-0.4c0-0.4,0-0.8,0-1.2c0-0.3,0.2-0.5,0.5-0.4c0.4,0,0.7,0,1.1,0
			c0.3,0,0.4,0.1,0.4,0.4c0,0.4,0,0.9,0,1.3c0,0.2-0.1,0.4-0.4,0.4C55.6,13.2,55.4,13.2,55.2,13.2z"/>
	</g>
</g>
<g>
	<path class="st0" d="M85,2.1c-8.3,0-14.9,6.7-14.9,14.9S76.7,31.9,85,31.9S99.9,25.3,99.9,17S93.3,2.1,85,2.1z M93.6,11.3L85,18.7
		l-8.6-7.5L93.6,11.3L93.6,11.3z M75.8,11.8l6.3,5.5l-6.3,5.5V11.8z M76.4,23.3l6.3-5.4l2.3,1.9l2.3-1.9l6.3,5.4H76.4z M94.2,22.7
		l-6.3-5.5l6.3-5.5V22.7z"/>
</g>
<g id="_x31_UO9mr.tif_1_">
	<g>
		<path class="st1" d="M22.4,65c0-3.4,0-6.9,0-10.3c1,0,2,0,3.1,0c0.1-1.3,0.2-2.6,0.3-3.9c-1.2,0-2.3,0-3.4,0c0-0.9,0-1.6,0-2.4
			c0-0.6,0.5-0.9,1.2-0.9c0.6,0,1.2,0,1.8,0c0.1,0,0.3,0,0.4,0c0-0.1,0-0.2,0-0.3c0-1.1,0-2.2,0-3.3c0-0.2,0-0.3-0.3-0.3
			c-1.4,0-2.8,0-4.3,0.1s-2.7,0.7-3.3,2.2c-0.2,0.5-0.3,1.1-0.3,1.7c-0.1,0.9,0,1.9,0,2.8c0,0.1,0,0.3,0,0.4c-0.8,0-1.6,0-2.4,0
			c0,1.3,0,2.6,0,4c0.8,0,1.7,0,2.5,0c0,3.8,0,7.5,0,11.2c-5.3,0.5-12.9-2.9-15.1-11.1C0.3,47,4.9,38.7,13,36.5
			c8.2-2.2,16.4,2.7,18.5,10.7S29,62.6,22.4,65z"/>
	</g>
</g>
<g id="Z3qONP.tif_1_">
	<g>
		<path class="st1" d="M51,36c8.3,0,15,6.7,15,15s-6.7,15-15,15s-15-6.7-15.1-15C35.9,42.7,42.7,36,51,36z M54.4,49.3
			c0.5,1.8,0.2,3.4-1.4,4.5c-1.2,0.8-2.5,0.8-3.7,0c-1.7-1.1-2-2.7-1.4-4.5c-1.4,0-2.8,0-4.2,0c0,0.1,0,0.2,0,0.3c0,1.5,0,3.1,0,4.6
			c0,2.1,1.5,3.8,3.7,3.8c2.5,0,5,0,7.5,0c2,0,3.5-1.6,3.6-3.6c0-0.9,0-1.9,0-2.8c0-0.8,0-1.6,0-2.4C57.1,49.3,55.8,49.3,54.4,49.3z
			 M58.4,48c0-0.4,0-0.7,0-1.1c-0.1-2.1-1.6-3.6-3.8-3.6c-2.4,0-4.9,0-7.3,0c-2.2,0-4.1,1.9-3.6,4.7h0.1c1.7,0,3.4,0,5.1,0
			c0.1,0,0.2,0,0.3-0.1c1.2-0.8,2.5-0.8,3.7,0C53,48,53.1,48,53.2,48C55,48,56.7,48,58.4,48z M51.1,52.2c0.8,0,1.4-0.6,1.4-1.4
			c0-0.8-0.7-1.5-1.4-1.5c-0.8,0-1.5,0.7-1.5,1.5C49.7,51.6,50.3,52.2,51.1,52.2z"/>
		<path class="st1" d="M55.2,47.2c-0.2,0-0.4,0-0.6,0c-0.3,0-0.4-0.1-0.4-0.4c0-0.4,0-0.8,0-1.2c0-0.3,0.2-0.5,0.5-0.5
			c0.4,0,0.8,0,1.1,0s0.4,0.1,0.4,0.4c0,0.4,0,0.9,0,1.3c0,0.2-0.1,0.4-0.4,0.4C55.6,47.2,55.4,47.2,55.2,47.2z"/>
	</g>
</g>
<g>
	<path class="st1" d="M85,36c-8.3,0-15,6.7-15,15s6.7,15,15,15s15-6.7,15-15S93.3,36,85,36z M93.7,45.2L85,52.7l-8.7-7.5H93.7z
		 M75.8,45.8l6.4,5.5l-6.4,5.5V45.8z M76.3,57.4l6.3-5.5l2.3,1.9l2.3-1.9l6.4,5.5H76.3z M94.2,56.8l-6.4-5.5l6.4-5.5V56.8z"/>
</g>
<g id="kRBGkE.tif">
	<g>
		<path class="st1" d="M133,36c0,1.1,0,2.2,0,3.2c0,0.6,0.1,0.9,0.7,1.1c0.3,0.1,0.5,0.3,0.8,0.4c0.4,0.1,0.5,0.4,0.5,0.8
			c0,2.9,0,5.8,0,8.7c0,4.2,0,8.3,0,12.5c0,2-1.7,3.3-3.2,3.2c-0.7,0-1.4,0-2.1,0c-4.9,0-9.7,0-14.6,0c-3,0-6,0-9,0
			c-1.7,0-3-1.3-3-3c0-5,0-9.9,0-14.9c0-2.2,0-4.5,0-6.7c0-0.3,0.1-0.4,0.3-0.5c0.5-0.2,0.9-0.5,1.4-0.7c0.2-0.1,0.3-0.2,0.3-0.5
			c0-1.1,0-2.2,0-3.3c0-0.1,0-0.2,0-0.4C114.3,36,123.6,36,133,36z M125,48.6L125,48.6c0,0.3,0,0.7,0,1s-0.1,0.7-0.2,1
			c-0.7,2.5-3,4.3-5.6,4.3c-2.7,0-5-1.7-5.8-4.2C113,49.9,113,49,113,48c0-0.3,0.1-0.4,0.3-0.6c0.9-0.7,1-2.1,0.2-2.9
			c-0.8-0.8-2.1-0.8-2.9,0s-0.8,2.2,0.1,2.9c0.2,0.2,0.3,0.4,0.3,0.7c-0.1,1.6,0.2,3.2,0.9,4.7c2.5,4.8,9.2,5.7,12.9,1.8
			c1.6-1.8,2.3-3.8,2.2-6.2c0-0.4,0-0.7,0.4-1c0.8-0.7,0.8-2,0-2.8c-0.7-0.8-2-0.8-2.8,0s-0.9,2.1-0.1,2.8
			C124.9,47.8,125,48.1,125,48.6C125,48.5,125,48.6,125,48.6z M130.9,38c-8,0-15.9,0-23.8,0v0.1c0.6,0.6,1.3,1.2,1.9,1.9
			c-0.2,0.3-0.4,0.6-0.6,1c7.1,0,14.1,0,21.2,0c-0.2-0.4-0.4-0.7-0.6-1C129.6,39.3,130.3,38.7,130.9,38z"/>
	</g>
</g>
<g id="kRBGkE.tif_1_">
	<g>
		<path class="st1" d="M166.1,37c0,1,0,2,0,3c0,0.5,0.1,0.9,0.6,1c0.3,0.1,0.5,0.3,0.8,0.4c0.4,0.1,0.5,0.4,0.5,0.8
			c0,2.7,0,5.5,0,8.2c0,3.9,0,7.8,0,11.7c0,1.9-1.6,3.1-3,3c-0.7,0-1.3,0-2,0c-4.6,0-9.1,0-13.7,0c-2.8,0-5.7,0-8.5,0
			c-1.6,0-2.8-1.2-2.8-2.8c0-4.7,0-9.3,0-14c0-2.1,0-4.2,0-6.3c0-0.2,0.1-0.4,0.3-0.5c0.4-0.2,0.9-0.4,1.3-0.6
			c0.2-0.1,0.3-0.2,0.3-0.4c0-1,0-2,0-3.1c0-0.1,0-0.2,0-0.4C148.6,37,157.3,37,166.1,37z M158.6,48.8L158.6,48.8c0,0.3,0,0.6,0,0.9
			c0,0.3-0.1,0.6-0.2,1c-0.7,2.4-2.9,4-5.3,4.1c-2.5,0-4.7-1.6-5.5-4c-0.3-0.8-0.3-1.7-0.3-2.5c0-0.2,0.1-0.4,0.3-0.6
			c0.8-0.7,0.9-1.9,0.2-2.7s-2-0.8-2.7,0c-0.8,0.8-0.7,2,0.1,2.7c0.2,0.2,0.3,0.4,0.3,0.6c-0.1,1.5,0.2,3,0.9,4.4
			c2.4,4.5,8.6,5.4,12.1,1.6c1.5-1.6,2.2-3.6,2.1-5.8c0-0.4,0-0.6,0.4-0.9c0.8-0.7,0.8-1.9,0-2.6c-0.7-0.7-1.9-0.7-2.6,0
			c-0.7,0.7-0.8,1.9-0.1,2.6c0.4,0.3,0.5,0.7,0.4,1.1C158.6,48.6,158.6,48.7,158.6,48.8z M164.2,38.8c-7.5,0-14.9,0-22.3,0
			c0,0,0,0,0,0.1c0.6,0.6,1.2,1.2,1.8,1.8c-0.2,0.3-0.4,0.6-0.6,0.9c6.7,0,13.3,0,19.9,0c-0.2-0.3-0.4-0.6-0.6-0.9
			C163,40,163.6,39.5,164.2,38.8z"/>
	</g>
</g>
<g>
	<path class="st1" d="M187,38.5c-6.9,0-12.5,5.6-12.5,12.5s5.6,12.5,12.5,12.5s12.5-5.6,12.5-12.5S193.9,38.5,187,38.5z M190.9,56.7
		l-3.9-2.1l-3.9,2.1l0.7-4.4l-3.2-3.1l4.4-0.6l2-4l2,4l4.4,0.6l-3.2,3.1L190.9,56.7z"/>
</g>
<g>
	<path class="st0" d="M303.5,71.6c-10.5,0-19,8.5-19,19s8.5,19,19,19s19-8.5,19-19S314,71.6,303.5,71.6z M313.5,99.9l-3.7-1.4
		c-1.7,1.4-3.9,2.2-6.3,2.2c-5.6,0-10.1-4.5-10.1-10.1s4.5-10.1,10.1-10.1s10.1,4.5,10.1,10.1c0,1.4-0.3,2.7-0.8,3.9l1.6,4.5
		C314.7,99.8,314.3,100.2,313.5,99.9z"/>
	<circle class="st0" cx="298.4" cy="90.5" r="1.3"/>
	<circle class="st0" cx="303.2" cy="90.5" r="1.3"/>
	<circle class="st0" cx="308" cy="90.5" r="1.3"/>
</g>
<g>
	<g>
		<path class="st1" d="M47.8,108.4h-0.6V108c0.5-0.1,0.6-0.3,0.8-0.5h0.4v3.8h-0.7L47.8,108.4L47.8,108.4z"/>
		<path class="st1" d="M49.7,108.7c0-0.8,0.4-1.3,1.3-1.3s1.3,0.5,1.3,1.3v1.3c0,0.8-0.4,1.3-1.3,1.3s-1.3-0.5-1.3-1.3V108.7z
			 M50.4,109.9c0,0.6,0.2,0.8,0.6,0.8s0.6-0.2,0.6-0.8v-1.1c0-0.6-0.2-0.8-0.6-0.8c-0.4,0-0.6,0.2-0.6,0.8V109.9z"/>
		<path class="st1" d="M53.2,108.7c0-0.8,0.4-1.3,1.3-1.3c0.8,0,1.3,0.5,1.3,1.3v1.3c0,0.8-0.4,1.3-1.3,1.3c-0.8,0-1.3-0.5-1.3-1.3
			V108.7z M53.9,109.9c0,0.6,0.2,0.8,0.6,0.8s0.6-0.2,0.6-0.8v-1.1c0-0.6-0.2-0.8-0.6-0.8s-0.6,0.2-0.6,0.8V109.9z"/>
		<path class="st1" d="M58.6,108.4c0,0.5-0.4,0.9-0.9,0.9s-0.9-0.4-0.9-0.9s0.4-0.9,0.9-0.9S58.6,107.9,58.6,108.4z M57.2,108.4
			c0,0.2,0.2,0.4,0.4,0.4s0.4-0.2,0.4-0.4c0-0.2-0.2-0.4-0.4-0.4S57.2,108.2,57.2,108.4z M59.7,107.5h0.4l-2.2,3.8h-0.4L59.7,107.5z
			 M61,110.3c0,0.5-0.4,0.9-0.9,0.9s-0.9-0.4-0.9-0.9s0.4-0.9,0.9-0.9S61,109.8,61,110.3z M59.6,110.3c0,0.2,0.2,0.4,0.4,0.4
			s0.4-0.2,0.4-0.4s-0.2-0.4-0.4-0.4S59.6,110.1,59.6,110.3z"/>
		<path class="st1" d="M64.6,110.1c0,0.4,0.2,0.5,0.5,0.5s0.5-0.1,0.5-0.5v-0.2h0.7v0.2c0,0.9-0.5,1.3-1.2,1.3s-1.2-0.3-1.2-1.3
			v-1.3c0-0.9,0.5-1.3,1.2-1.3s1.2,0.3,1.2,1.3l0,0h-0.7v-0.1c0-0.4-0.2-0.5-0.5-0.5s-0.5,0.1-0.5,0.5V110.1z"/>
		<path class="st1" d="M67.1,111.2l0.9-3.7h0.9l0.9,3.7h-0.7l-0.2-0.8h-1l-0.2,0.8H67.1z M68.1,109.8h0.7l-0.3-1.5l0,0L68.1,109.8z"
			/>
		<path class="st1" d="M72.4,108.5c-0.1-0.4-0.3-0.5-0.5-0.5c-0.3,0-0.4,0.2-0.4,0.4c0,0.6,1.6,0.6,1.6,1.8c0,0.6-0.4,1.1-1.2,1.1
			c-0.6,0-1-0.3-1.2-1.1l0.7-0.2c0.1,0.5,0.3,0.6,0.6,0.6c0.2,0,0.4-0.2,0.4-0.4c0-0.7-1.6-0.7-1.6-1.8c0-0.6,0.4-1,1.1-1
			c0.6,0,1,0.4,1.2,0.9L72.4,108.5z"/>
		<path class="st1" d="M74.2,111.2v-3.7h0.7v1.5h1v-1.5h0.7v3.7h-0.7v-1.6h-1v1.6H74.2z"/>
		<path class="st1" d="M77.8,111.2v-3.7h1l0.6,2.5l0,0l0.6-2.5h1v3.7h-0.6v-2.9l0,0l-0.8,2.9h-0.5l-0.8-2.9l0,0v2.9H77.8z"/>
		<path class="st1" d="M82.2,111.2v-3.7h2v0.6H83v0.9h0.9v0.6H83v1h1.3v0.6H82.2L82.2,111.2z"/>
		<path class="st1" d="M87,111.2l-0.6-1.5h-0.3v1.5h-0.7v-3.7h1c0.9,0,1.3,0.4,1.3,1.1c0,0.5-0.2,0.8-0.6,1l0.7,1.7L87,111.2
			L87,111.2z M86.1,109.1h0.4c0.3,0,0.5-0.2,0.5-0.5s-0.2-0.5-0.5-0.5h-0.4V109.1z"/>
		<path class="st1" d="M88.8,111.2v-3.7h2v0.6h-1.2v0.9h0.9v0.6h-0.9v1h1.3v0.6H88.8L88.8,111.2z"/>
	</g>
	<g>
		<g>
			<path class="st1" d="M10.5,84.6c-0.7-1.9-1.5-2.7-2.9-2.7s-2.2,0.8-2.2,2.2c0,3.1,8.7,3.3,8.7,9.7c0,3.5-2.4,5.8-6.5,5.8
				c-3.2,0-5.6-1.7-6.7-5.7L4.8,93c0.5,2.5,1.9,3.3,3,3.3c1.4,0,2.4-0.9,2.4-2.4c0-3.8-8.7-3.9-8.7-9.6c0-3.5,2.1-5.7,6.1-5.7
				c3.5,0,5.6,2.1,6.3,4.9L10.5,84.6z"/>
			<path class="st1" d="M15.5,85.5c0-5,2.7-6.8,6.4-6.8s6.4,1.8,6.4,6.8v7.3c0,5-2.7,6.8-6.4,6.8c-3.8,0-6.4-1.8-6.4-6.8V85.5z
				 M19.4,93.3c0,2.3,1,2.9,2.5,2.9s2.5-0.6,2.5-2.9V85c0-2.3-1-2.9-2.5-2.9s-2.5,0.6-2.5,2.9V93.3z"/>
			<path class="st1" d="M29.9,99.3V78.9h10.2v3.5h-6.3v4.7h4.9v3.5h-4.9v8.8L29.9,99.3L29.9,99.3z"/>
			<path class="st1" d="M53.8,78.9v3.5h-4.6v17h-3.9v-17h-4.6v-3.5H53.8z"/>
		</g>
		<g>
			<g>
				<path class="st1" d="M83.6,73.7c-0.2-0.3-1-0.2-1.1-0.2s-0.9,0-1.5-0.3s-1.3,0.2-1.5,0.3c-0.2,0.1-0.4-0.5-0.4-1.2
					c0-0.8,0.6-2.1,0.7-2.4s0.3-1,0.1-1.1c-0.2-0.1-0.4,0.3-0.9,0.8s-1.7,3.2-1.8,3.2c-0.1,0-0.9,0.4-1,0.4s-0.5-0.3-0.8-0.4
					s-0.9-1.6-1.4-2.6c-0.5-0.9-0.8-1.2-0.9-1.1s0.1,1.9,0.3,2.8c0.2,0.9,0.4,1.3,0.4,1.3s0.3,0.2-0.2,0.5s-0.7-0.2-1-0.3
					c-0.3-0.1-0.8-0.2-1-0.3c-0.2-0.1-0.9-0.6-1.4-0.4C69.7,73,70,73,70.1,73.6s0.6,0.5,0.8,1.2c0.2,0.7,0.7,0.5,1,1.1
					c0.3,0.5,1.2,0.2,1.3,0.3c0.1,0.1,0.1,0.2,0.3,0.4c0.1,0.2,0.1,0.5,0.2,0.7s0.3,1.1,0.3,1.3c0,0.2-0.2,0.1-0.4,0.4
					c-0.3,0.3-0.3,0.3-0.5,0.5S72.7,80,72.7,80s-0.9-0.1-1.3-0.2s-1.7-0.4-2.1-0.6c-0.5-0.2-1.8-0.6-2.2-0.7
					c-1.5-0.3-2.3-0.4-3.6-0.2l0,0l0,0c-0.1,0-0.2,0-0.4,0.1c-0.7,0.1-1.1,0.2-2.5,1.2c-0.2,0.1-0.3,0.3-0.5,0.5
					c-0.5,0.4-0.8,0.9-1,1.4c-0.3,0.6-0.1,1.6-0.1,2.2c0,2.4-2.1,2.6-2.1,2.7s1.1,0.2,1.4,0c0,0,0,0.5-0.6,0.7s1.4,0.4,2-0.8
					c0,0.1,0.2,1.5,0.2,2.2s0.6,1.9,0.9,2.4c0.3,0.5,0.5,1.8,0.5,2.4c-0.1,0.6-0.7,1.8-0.8,1.9s0.1,0.6,0.2,0.7
					c0.1,0.1,0.2,0.3,0.2,0.5s0.1,1.1,0.1,1.3c0,0.2,0.3,1.5,0.1,2.1c-0.3,0.6-0.3,1.1-0.3,1.6c0,0.4,1.6,0.9,1.9,1
					c0.3,0.1,0.8-0.1,0.9-0.1c0.1,0,0.2,0.2,0.2-0.1c0-0.4-0.6-1.4-0.8-1.5c-0.2,0-0.4-0.7-0.5-1.1s0-0.9,0-1.3s0.1-1,0-1.5
					c0-0.5,0.1-0.6,0.1-0.6s0.5-1.7,0.9-2.8c0.4-1.1,0.7-2.8,0.7-2.8s0.2,0,0.3,0.2c0.1,0.3,0.3,0.3,0.4,0.5
					c0.2,0.2,0.3,0.8,0.3,0.8c-1,1.6-0.2,1.8-0.2,2.1c0,0.3-0.2,0.7,0,1.3c0.2,0.6,0.4,0.8,0.4,1s0,0.2,0.2,0.5s0.4,0.8,0.4,1.1
					c-0.1,0.3,0.1,1.2,0.2,1.4c0.1,0.2,0.6,0.2,0.6,0.3c0.1,0.1,0.3,0.2,0.4,0.3c0.1,0.1,0.5,0,0.5,0c0.1,0,0.3,0.2,0.5,0.1
					c0.3-0.1,0.8,0.2,0.8-0.2c0-0.4-1-1.3-1-1.4s-0.4-0.7-0.7-0.9C67,97.5,66.9,96.3,67,96c0.1-0.2-0.2-1.3-0.3-1.6
					c-0.1-0.3,0.2-0.8,0.3-1.2c0.1-0.4-0.1-0.9,0.1-0.8s2.6,0.4,2.9,0.5c0.3,0,0.6,0,0.8,0c0.2,0,0.3,0.3,0.5,0.7
					c0.1,0.4,0.1,1.2,0.3,2c0.2,0.8,0.6,1.4,0.8,1.8c0.3,0.4,0.1,0.5,0.2,0.9s0,0.5,0,0.7s0,0.5-0.1,0.6s0,0.4-0.1,0.7
					c-0.1,0.3-0.5,0.4-0.5,0.4s0.4,0,0.4,0.1s-0.6,0.8-0.6,0.8H72v0.2c0.1-0.1,0.4-0.3,0.4-0.3s0,0.2-0.1,0.3
					c-0.1,0.1-0.3,0.5-0.1,0.8c0.1,0.3,1,0.8,1.6,0.9s0.5-0.1,0.5-0.1V103c0,0,0.5,0.2,0.8,0.2s-0.1-0.4-0.1-0.4s-0.3-0.1-0.5-1
					c-0.2-0.3-0.3-0.6-0.2-1.1c0.1-0.6,0.1-1.5,0.1-2.3c-0.1-1.2-0.3-2.3-0.3-2.3c-0.3-0.5-0.1-1.1-0.4-1.8
					c-0.3-0.7-0.1-1.3-0.1-1.3l0.3-0.6h0.3c0,0,0.2,0.5,0.2,0.6s0,0.9-0.1,0.9s0.1,2.5,0.1,3.1c0,0.3,0,0.8-0.1,1.4
					c0.1,0.8,0.1,1.6,0.1,2.3c0,0.4,0,0.8,0,1.1c0.2,0.4,0.6,0.7,0.6,0.7c0.6,0.2,1.5,0,1.5,0l-0.1-0.2h0.4c0-0.4-1.1-1.3-1.1-1.3
					s-0.2-0.1-0.3-1c-0.1-0.8-0.2-0.5,0.1-1.2c0.3-0.8,0.4-2.1,0.4-2.7s0.5-1.1,0.6-1.5s0.2-1.4,0.3-1.6c0.1-0.2,0.2-0.9,0.4-1.3
					c0.2-0.4,0.4-1.8,0.4-2.4s0.3-0.8,0.4-1.3c0.1-0.6-0.4-2.3-0.6-2.6c-0.2-0.3-0.1-1.2-0.1-1.6s0.1-0.6,0.3-0.3
					c0.2,0.4,0.1,0.8,0.1,0.8s-0.1,0.1,0.1,0s0.2-0.6,0.1-0.9c-0.1-0.4-0.4-1.9-0.4-2.3s0.1,0.1,0.4-0.9s0.5-0.5,0.5-0.7
					c0.1-0.1,0.1-0.6,0.3-1c0.2-0.4,0.4-1.1,0.4-1.2s0.2-0.4,0.4-0.7c0.2-0.3,0.3-1.2,0.3-1.2s0.2-0.1,0.5,0s0.8-0.2,1.6-0.5
					c0.8-0.3,0.9-0.8,1-0.8C83,74.3,83.8,74,83.6,73.7"/>
			</g>
			<g>
				<path class="st1" d="M72,101.7L72,101.7L72,101.7"/>
			</g>
		</g>
		<g>
			<path class="st1" d="M93.5,97.6c-1,1.2-2.2,2-3.6,2c-3.8,0-6.4-1.8-6.4-6.8v-7.3c0-5,2.7-6.8,6.4-6.8c4,0,6.1,2.3,6.3,6.9h-3.9
				c0-2.6-1-3.5-2.4-3.5c-1.6,0-2.5,0.6-2.5,2.9v8.3c0,2.3,1,2.9,2.5,2.9s2.4-1.1,2.4-2.8v-1.2h-2.7V89h6.6v10.5h-2L93.5,97.6z"/>
			<path class="st1" d="M97.7,85.5c0-5,2.7-6.8,6.4-6.8c3.8,0,6.4,1.8,6.4,6.8v7.3c0,5-2.7,6.8-6.4,6.8c-3.8,0-6.4-1.8-6.4-6.8V85.5
				z M101.6,93.3c0,2.3,1,2.9,2.5,2.9s2.5-0.6,2.5-2.9V85c0-2.3-1-2.9-2.5-2.9s-2.5,0.6-2.5,2.9V93.3z"/>
			<path class="st1" d="M110.8,99.3l5.1-20.4h5l4.9,20.4h-3.7l-1-4.3h-5.4l-1.1,4.3H110.8z M116.4,91.6h3.9l-1.9-8.3h-0.1
				L116.4,91.6z"/>
			<path class="st1" d="M137,78.9v3.5h-4.6v17h-3.9v-17H124v-3.5H137z"/>
		</g>
	</g>
</g>
<g>
	<g>
		<path class="st1" d="M264.2,27.6h-0.3v-0.2c0.3-0.1,0.4-0.2,0.5-0.3h0.2v2.1h-0.4L264.2,27.6L264.2,27.6z"/>
		<path class="st1" d="M265.3,27.8c0-0.5,0.3-0.7,0.7-0.7c0.5,0,0.7,0.3,0.7,0.7v0.7c0,0.5-0.3,0.7-0.7,0.7s-0.7-0.3-0.7-0.7V27.8z
			 M265.7,28.4c0,0.3,0.1,0.4,0.3,0.4s0.3-0.1,0.3-0.4v-0.6c0-0.3-0.1-0.4-0.3-0.4s-0.3,0.1-0.3,0.4V28.4z"/>
		<path class="st1" d="M267.3,27.8c0-0.5,0.3-0.7,0.7-0.7c0.5,0,0.7,0.3,0.7,0.7v0.7c0,0.5-0.3,0.7-0.7,0.7s-0.7-0.3-0.7-0.7V27.8z
			 M267.7,28.4c0,0.3,0.1,0.4,0.3,0.4s0.3-0.1,0.3-0.4v-0.6c0-0.3-0.1-0.4-0.3-0.4s-0.3,0.1-0.3,0.4V28.4z"/>
		<path class="st1" d="M270.4,27.6c0,0.3-0.2,0.5-0.5,0.5s-0.5-0.2-0.5-0.5s0.2-0.5,0.5-0.5C270.1,27.1,270.4,27.3,270.4,27.6z
			 M269.6,27.6c0,0.1,0.1,0.2,0.2,0.2s0.2-0.1,0.2-0.2s-0.1-0.2-0.2-0.2S269.6,27.5,269.6,27.6z M271,27h0.2l-1.2,2.2h-0.3L271,27z
			 M271.7,28.6c0,0.3-0.2,0.5-0.5,0.5s-0.5-0.2-0.5-0.5s0.2-0.5,0.5-0.5S271.7,28.4,271.7,28.6z M270.9,28.6c0,0.1,0.1,0.2,0.2,0.2
			s0.2-0.1,0.2-0.2s-0.1-0.2-0.2-0.2S270.9,28.5,270.9,28.6z"/>
		<path class="st1" d="M273.8,28.5c0,0.2,0.1,0.3,0.3,0.3s0.3-0.1,0.3-0.3v-0.1h0.4v0.1c0,0.5-0.3,0.7-0.7,0.7
			c-0.4,0-0.7-0.2-0.7-0.7v-0.8c0-0.5,0.3-0.7,0.7-0.7c0.4,0,0.7,0.2,0.7,0.7l0,0h-0.4v-0.1c0-0.2-0.1-0.3-0.3-0.3
			c-0.2,0-0.3,0.1-0.3,0.3V28.5z"/>
		<path class="st1" d="M275.2,29.2l0.5-2.1h0.5l0.5,2.1h-0.4l-0.1-0.4h-0.6l-0.1,0.4H275.2z M275.7,28.4h0.4l-0.2-0.9l0,0
			L275.7,28.4z"/>
		<path class="st1" d="M278.2,27.6c-0.1-0.2-0.2-0.3-0.3-0.3c-0.1,0-0.2,0.1-0.2,0.2c0,0.3,0.9,0.3,0.9,1c0,0.4-0.2,0.6-0.7,0.6
			c-0.3,0-0.6-0.2-0.7-0.6l0.4-0.1c0,0.3,0.2,0.3,0.3,0.3c0.1,0,0.3-0.1,0.3-0.3c0-0.4-0.9-0.4-0.9-1c0-0.4,0.2-0.6,0.6-0.6
			s0.6,0.2,0.7,0.5L278.2,27.6z"/>
		<path class="st1" d="M279.2,29.2v-2.1h0.4v0.8h0.6v-0.8h0.4v2.1h-0.4v-0.9h-0.6v0.9H279.2z"/>
		<path class="st1" d="M281.2,29.2v-2.1h0.6l0.4,1.4l0,0l0.4-1.4h0.6v2.1h-0.3v-1.7l0,0l-0.4,1.7H282l-0.4-1.7l0,0v1.7H281.2z"/>
		<path class="st1" d="M283.7,29.2v-2.1h1.1v0.4h-0.7V28h0.5v0.4h-0.5V29h0.7v0.4L283.7,29.2L283.7,29.2z"/>
		<path class="st1" d="M286.5,29.2l-0.4-0.9h-0.2v0.9h-0.4v-2.1h0.6c0.5,0,0.7,0.2,0.7,0.6c0,0.3-0.1,0.5-0.3,0.5l0.4,0.9h-0.4V29.2
			z M285.9,28h0.2c0.2,0,0.3-0.1,0.3-0.3c0-0.2-0.1-0.3-0.3-0.3h-0.2V28z"/>
		<path class="st1" d="M287.5,29.2v-2.1h1.1v0.4h-0.7V28h0.5v0.4h-0.5V29h0.7v0.4L287.5,29.2L287.5,29.2z"/>
	</g>
	<g>
		<g>
			<path class="st1" d="M243.1,14.1c-0.4-1.1-0.8-1.6-1.6-1.6s-1.2,0.5-1.2,1.3c0,1.7,4.9,1.9,4.9,5.5c0,2-1.4,3.3-3.7,3.3
				c-1.8,0-3.2-1-3.8-3.3l2.2-0.5c0.3,1.4,1.1,1.9,1.7,1.9c0.8,0,1.4-0.5,1.4-1.4c0-2.2-4.9-2.2-4.9-5.4c0-2,1.2-3.2,3.5-3.2
				c2,0,3.2,1.2,3.6,2.8L243.1,14.1z"/>
			<path class="st1" d="M246,14.6c0-2.8,1.5-3.9,3.7-3.9c2.1,0,3.7,1,3.7,3.9v4.1c0,2.9-1.5,3.9-3.7,3.9s-3.7-1-3.7-3.9V14.6z
				 M248.2,19c0,1.3,0.6,1.6,1.4,1.6s1.4-0.4,1.4-1.6v-4.7c0-1.3-0.6-1.6-1.4-1.6s-1.4,0.4-1.4,1.6V19z"/>
			<path class="st1" d="M254.1,22.4V10.9h5.8v2h-3.6v2.7h2.8v2h-2.8v5L254.1,22.4L254.1,22.4z"/>
			<path class="st1" d="M267.6,10.9v2H265v9.6h-2.2v-9.6h-2.6v-2H267.6z"/>
		</g>
		<g>
			<g>
				<path class="st1" d="M284.5,7.9c-0.1-0.2-0.6-0.1-0.6-0.1c-0.1,0-0.5,0-0.8-0.2s-0.7,0.1-0.8,0.2c-0.1,0.1-0.2-0.3-0.2-0.7
					c0-0.4,0.3-1.2,0.4-1.4c0-0.2,0.2-0.6,0.1-0.6c-0.1-0.1-0.2,0.2-0.5,0.4c-0.3,0.3-1,1.8-1,1.8s-0.5,0.2-0.6,0.2
					c0,0-0.3-0.2-0.4-0.2c-0.2-0.1-0.5-0.9-0.8-1.4s-0.4-0.7-0.5-0.6c0,0,0.1,1.1,0.2,1.6s0.2,0.8,0.2,0.8s0.2,0.1-0.1,0.3
					c-0.3,0.2-0.4-0.1-0.6-0.1c-0.2-0.1-0.5-0.1-0.6-0.2c-0.1,0-0.5-0.3-0.8-0.2C276.8,7.6,277,7.7,277,8c0,0.3,0.3,0.3,0.4,0.7
					s0.4,0.3,0.6,0.6c0.1,0.3,0.7,0.1,0.7,0.2c0,0.1,0.1,0.1,0.1,0.2c0.1,0.1,0.1,0.3,0.1,0.4c0,0.1,0.1,0.6,0.1,0.7
					c0,0.1-0.1,0.1-0.2,0.2c-0.1,0.1-0.2,0.2-0.3,0.3c-0.1,0.1-0.2,0.3-0.2,0.3s-0.5-0.1-0.7-0.1c-0.2-0.1-0.9-0.2-1.2-0.3
					c-0.3-0.1-1-0.4-1.2-0.4c-0.8-0.2-1.3-0.2-2-0.1l0,0l0,0c-0.1,0-0.1,0-0.2,0c-0.4,0.1-0.6,0.1-1.4,0.7c-0.1,0.1-0.2,0.2-0.3,0.3
					c-0.3,0.2-0.4,0.5-0.6,0.8c-0.1,0.4,0,0.9,0,1.3c0,1.4-1.2,1.5-1.2,1.5c0,0.1,0.6,0.1,0.8,0c0,0,0,0.3-0.4,0.4
					c-0.3,0.1,0.8,0.2,1.1-0.5c0,0,0.1,0.9,0.1,1.3s0.3,1.1,0.5,1.4s0.3,1,0.3,1.3s-0.4,1-0.5,1.1s0.1,0.3,0.1,0.4
					c0.1,0.1,0.1,0.1,0.1,0.3c0,0.1,0.1,0.6,0.1,0.7s0.2,0.9,0,1.2c-0.1,0.3-0.2,0.6-0.2,0.9s0.9,0.5,1.1,0.6c0.1,0,0.5-0.1,0.5-0.1
					c0.1,0,0.1,0.1,0.1-0.1s-0.3-0.8-0.4-0.8s-0.2-0.4-0.3-0.6c-0.1-0.2,0-0.5,0-0.7s0-0.6,0-0.9s0.1-0.3,0.1-0.3s0.3-0.9,0.5-1.6
					c0.2-0.6,0.4-1.6,0.4-1.6s0.1,0,0.2,0.1c0,0.1,0.1,0.2,0.2,0.3c0.1,0.1,0.1,0.5,0.1,0.5c-0.6,0.9-0.1,1-0.1,1.2s-0.1,0.4,0,0.7
					c0.1,0.3,0.2,0.5,0.2,0.5s0,0.1,0.1,0.3c0.1,0.2,0.2,0.5,0.2,0.6c0,0.2,0.1,0.7,0.1,0.8c0.1,0.1,0.3,0.1,0.4,0.2
					c0,0,0.2,0.1,0.2,0.2c0.1,0.1,0.3,0,0.3,0s0.1,0.1,0.3,0.1c0.1-0.1,0.5,0.1,0.5-0.1s-0.6-0.7-0.6-0.8c0-0.1-0.2-0.4-0.4-0.5
					c-0.1-0.1-0.2-0.8-0.1-0.9s-0.1-0.7-0.2-0.9c-0.1-0.2,0.1-0.5,0.1-0.7c0.1-0.2,0-0.5,0.1-0.5c0.1,0.1,1.5,0.3,1.6,0.3
					c0.2,0,0.4,0,0.4,0c0.1,0,0.2,0.2,0.3,0.4c0.1,0.2,0.1,0.7,0.2,1.1c0.1,0.5,0.3,0.8,0.5,1c0.1,0.2,0,0.3,0.1,0.5s0,0.3,0,0.4
					s0,0.3-0.1,0.4c0,0.1,0,0.2-0.1,0.4c0,0.2-0.3,0.3-0.3,0.3h0.2l-0.3,0.5h0.1v0.1l0.2-0.2c0,0,0,0.1-0.1,0.2s-0.1,0.3-0.1,0.5
					c0.1,0.2,0.5,0.5,0.9,0.5s0.3-0.1,0.3-0.1v-0.2c0,0,0.3,0.1,0.4,0.1c0.2,0-0.1-0.2-0.1-0.2s-0.2-0.1-0.3-0.5
					c-0.1-0.2-0.1-0.4-0.1-0.6c0-0.4,0.1-0.9,0.1-1.3c-0.1-0.7-0.1-1.3-0.1-1.3c-0.2-0.3,0-0.6-0.2-1s0-0.8,0-0.8l0.2-0.3h0.2
					l0.1,0.3c0,0,0,0.5-0.1,0.5s0.1,1.4,0.1,1.8c0,0.2,0,0.5,0,0.8c0,0.4,0.1,0.9,0,1.3c0,0.2,0,0.4,0,0.6c0.1,0.3,0.3,0.4,0.3,0.4
					c0.3,0.1,0.8,0,0.8,0v-0.1h0.2c0-0.2-0.6-0.7-0.6-0.7s-0.1-0.1-0.2-0.5c-0.1-0.5-0.1-0.3,0.1-0.7c0.2-0.4,0.3-1.2,0.3-1.5
					s0.3-0.6,0.3-0.9c0.1-0.2,0.1-0.8,0.2-0.9c0-0.1,0.1-0.5,0.2-0.7s0.2-1,0.2-1.3s0.2-0.4,0.2-0.8c0-0.3-0.2-1.3-0.3-1.5
					c-0.1-0.2,0-0.7,0-0.9s0.1-0.4,0.2-0.2s0,0.4,0,0.4s0,0,0.1,0s0.1-0.3,0-0.5c0-0.2-0.2-1.1-0.2-1.3s0.1,0,0.2-0.5
					c0.2-0.5,0.3-0.3,0.3-0.4c0-0.1,0.1-0.3,0.2-0.5s0.2-0.6,0.2-0.7c0-0.1,0.1-0.2,0.2-0.4s0.2-0.7,0.2-0.7s0.1-0.1,0.3,0
					c0.2,0,0.4-0.1,0.9-0.3c0.4-0.2,0.5-0.4,0.6-0.4C284.2,8.3,284.6,8.1,284.5,7.9"/>
			</g>
			<g>
				<path class="st1" d="M277.9,23.8L277.9,23.8L277.9,23.8"/>
			</g>
		</g>
		<g>
			<path class="st1" d="M290.1,21.5c-0.6,0.7-1.2,1.1-2.1,1.1c-2.1,0-3.7-1-3.7-3.9v-4.1c0-2.9,1.5-3.9,3.7-3.9
				c2.3,0,3.5,1.3,3.6,3.9h-2.2c0-1.5-0.5-2-1.3-2c-0.9,0-1.4,0.4-1.4,1.6V19c0,1.3,0.6,1.6,1.4,1.6s1.3-0.6,1.3-1.6v-0.7h-1.6v-1.8
				h3.8v5.9h-1.2L290.1,21.5z"/>
			<path class="st1" d="M292.5,14.6c0-2.8,1.5-3.9,3.7-3.9c2.1,0,3.7,1,3.7,3.9v4.1c0,2.9-1.5,3.9-3.7,3.9s-3.7-1-3.7-3.9V14.6z
				 M294.7,19c0,1.3,0.6,1.6,1.4,1.6s1.4-0.4,1.4-1.6v-4.7c0-1.3-0.6-1.6-1.4-1.6s-1.4,0.4-1.4,1.6V19z"/>
			<path class="st1" d="M299.9,22.4l2.9-11.6h2.8l2.8,11.6h-2.1l-0.6-2.4h-3.1l-0.6,2.4H299.9z M303.1,18h2.2l-1.1-4.7l0,0L303.1,18
				z"/>
			<path class="st1" d="M314.7,10.9v2h-2.6v9.6H310v-9.6h-2.6v-2H314.7z"/>
		</g>
	</g>
</g>
<g>
	<g>
		<path class="st1" d="M198.9,167.4h-0.8v-0.5c0.7-0.1,0.8-0.4,1.1-0.7h0.5v5h-0.9L198.9,167.4L198.9,167.4z"/>
		<path class="st1" d="M201.5,167.9c0-1,0.6-1.7,1.6-1.7c1.1,0,1.6,0.7,1.6,1.7v1.6c0,1-0.6,1.7-1.6,1.7s-1.6-0.7-1.6-1.7V167.9z
			 M202.4,169.4c0,0.8,0.2,1,0.7,1s0.7-0.2,0.7-1V168c0-0.8-0.2-1-0.7-1s-0.7,0.2-0.7,1V169.4z"/>
		<path class="st1" d="M206.1,167.9c0-1,0.6-1.7,1.6-1.7c1.1,0,1.6,0.7,1.6,1.7v1.6c0,1-0.6,1.7-1.6,1.7s-1.6-0.7-1.6-1.7V167.9z
			 M207,169.4c0,0.8,0.2,1,0.7,1s0.7-0.2,0.7-1V168c0-0.8-0.2-1-0.7-1s-0.7,0.2-0.7,1V169.4z"/>
		<path class="st1" d="M213.1,167.4c0,0.7-0.5,1.2-1.2,1.2s-1.2-0.6-1.2-1.2s0.5-1.2,1.2-1.2S213.1,166.8,213.1,167.4z M211.3,167.4
			c0,0.3,0.3,0.6,0.6,0.6s0.6-0.3,0.6-0.6s-0.3-0.6-0.6-0.6S211.3,167.2,211.3,167.4z M214.6,166.2h0.6l-2.8,5h-0.6L214.6,166.2z
			 M216.2,169.9c0,0.7-0.5,1.2-1.2,1.2s-1.2-0.6-1.2-1.2s0.5-1.2,1.2-1.2S216.2,169.2,216.2,169.9z M214.5,169.9
			c0,0.3,0.3,0.6,0.6,0.6s0.6-0.3,0.6-0.6s-0.3-0.6-0.6-0.6C214.7,169.3,214.5,169.6,214.5,169.9z"/>
		<path class="st1" d="M221,169.7c0,0.5,0.2,0.7,0.6,0.7c0.4,0,0.6-0.1,0.6-0.7v-0.3h0.9v0.2c0,1.2-0.6,1.6-1.5,1.6
			s-1.5-0.4-1.5-1.6v-1.8c0-1.2,0.6-1.6,1.5-1.6s1.5,0.4,1.5,1.6l0,0h-0.9v-0.1c0-0.5-0.2-0.7-0.6-0.7c-0.4,0-0.6,0.1-0.6,0.7V169.7
			z"/>
		<path class="st1" d="M224.2,171.1l1.2-4.9h1.2l1.2,4.9h-0.9l-0.2-1h-1.3l-0.3,1H224.2z M225.6,169.3h0.9l-0.5-2l0,0L225.6,169.3z"
			/>
		<path class="st1" d="M231.1,167.6c-0.2-0.5-0.4-0.7-0.7-0.7s-0.5,0.2-0.5,0.5c0,0.7,2.1,0.8,2.1,2.3c0,0.8-0.6,1.4-1.6,1.4
			c-0.8,0-1.4-0.4-1.6-1.4l0.9-0.2c0.1,0.6,0.4,0.8,0.7,0.8s0.6-0.2,0.6-0.6c0-0.9-2.1-0.9-2.1-2.3c0-0.8,0.5-1.4,1.5-1.4
			c0.8,0,1.3,0.5,1.5,1.2L231.1,167.6z"/>
		<path class="st1" d="M233.5,171.1v-4.9h0.9v2h1.3v-2h0.9v4.9h-0.9V169h-1.3v2.1H233.5z"/>
		<path class="st1" d="M238.2,171.1v-4.9h1.3l0.8,3.2l0,0l0.8-3.2h1.3v4.9h-0.8v-3.9l0,0l-1,3.9H240l-1-3.9l0,0v3.9H238.2z"/>
		<path class="st1" d="M244,171.1v-4.9h2.6v0.8H245v1.1h1.2v0.8H245v1.3h1.7v0.8L244,171.1L244,171.1z"/>
		<path class="st1" d="M250.3,171.1l-0.8-2H249v2h-0.9v-4.9h1.4c1.1,0,1.7,0.5,1.7,1.5c0,0.6-0.2,1.1-0.7,1.2l0.9,2.2H250.3z
			 M249,168.4h0.5c0.4,0,0.7-0.2,0.7-0.7s-0.3-0.7-0.7-0.7H249V168.4z"/>
		<path class="st1" d="M252.6,171.1v-4.9h2.6v0.8h-1.6v1.1h1.2v0.8h-1.2v1.3h1.7v0.8L252.6,171.1L252.6,171.1z"/>
	</g>
	<g>
		<g>
			<path class="st1" d="M150.1,136.2c-0.9-2.5-2-3.6-3.7-3.6c-1.8,0-2.8,1.1-2.8,2.9c0,4,11.4,4.3,11.4,12.7c0,4.6-3.1,7.6-8.5,7.6
				c-4.1,0-7.4-2.3-8.7-7.5l5-1.1c0.6,3.2,2.4,4.4,4,4.4c1.8,0,3.1-1.2,3.1-3.2c0-5-11.4-5.1-11.4-12.6c0-4.6,2.7-7.5,8-7.5
				c4.6,0,7.3,2.7,8.2,6.5L150.1,136.2z"/>
			<path class="st1" d="M156.7,137.4c0-6.6,3.5-9,8.4-9s8.4,2.4,8.4,9v9.6c0,6.6-3.5,9-8.4,9c-5,0-8.4-2.4-8.4-9V137.4z
				 M161.8,147.6c0,3,1.3,3.8,3.3,3.8s3.3-0.8,3.3-3.8v-10.9c0-3-1.3-3.8-3.3-3.8s-3.3,0.8-3.3,3.8V147.6z"/>
			<path class="st1" d="M175.6,155.5v-26.7h13.3v4.5h-8.2v6.1h6.4v4.5h-6.4v11.6L175.6,155.5L175.6,155.5z"/>
			<path class="st1" d="M206.8,128.8v4.5h-6v22.2h-5.1v-22.2h-6v-4.5H206.8z"/>
		</g>
		<g>
			<g>
				<path class="st1" d="M245.8,122c-0.3-0.4-1.3-0.3-1.4-0.2c-0.1,0-1.1-0.1-1.9-0.4c-0.8-0.4-1.7,0.2-1.9,0.4
					c-0.3,0.1-0.5-0.6-0.5-1.6s0.8-2.7,0.9-3.1c0.1-0.4,0.4-1.4,0.1-1.5c-0.2-0.1-0.6,0.4-1.2,1c-0.6,0.6-2.2,4.2-2.3,4.2
					s-1.2,0.5-1.3,0.5s-0.7-0.4-1-0.5c-0.4-0.1-1.2-2.1-1.8-3.3c-0.6-1.2-1-1.6-1.1-1.5s0.1,2.5,0.4,3.6c0.3,1.1,0.5,1.7,0.5,1.7
					s0.4,0.3-0.2,0.7c-0.6,0.4-0.9-0.2-1.4-0.3c-0.4-0.1-1.1-0.3-1.3-0.4s-1.1-0.8-1.8-0.5s-0.2,0.3-0.1,1.1c0.1,0.8,0.8,0.7,1,1.6
					c0.3,0.9,0.9,0.7,1.3,1.4c0.3,0.7,1.6,0.2,1.7,0.4c0.1,0.2,0.1,0.3,0.3,0.5c0.2,0.3,0.1,0.6,0.2,0.9c0.1,0.3,0.3,1.5,0.3,1.7
					c0,0.3-0.2,0.2-0.5,0.5s-0.4,0.4-0.7,0.7s-0.5,0.7-0.5,0.7s-1.2-0.1-1.6-0.3c-0.5-0.2-2.2-0.5-2.8-0.8s-2.4-0.8-2.9-0.9
					c-1.9-0.4-3.1-0.5-4.7-0.2l0,0l0,0c-0.2,0-0.3,0-0.5,0.1c-0.9,0.1-1.4,0.3-3.2,1.5c-0.2,0.2-0.4,0.4-0.6,0.6
					c-0.6,0.5-1,1.1-1.3,1.8c-0.3,0.8-0.1,2.1-0.1,2.9c0,3.2-2.8,3.5-2.7,3.6s1.4,0.3,1.8-0.1c0.1,0,0,0.7-0.8,1
					c-0.7,0.2,1.8,0.6,2.6-1.1c0.1,0.1,0.2,2,0.3,2.9s0.8,2.5,1.2,3.2s0.7,2.3,0.6,3.1c-0.1,0.8-1,2.4-1.1,2.5s0.1,0.8,0.3,1
					c0.1,0.2,0.3,0.3,0.3,0.7c0,0.3,0.2,1.4,0.2,1.7c0,0.2,0.4,2,0.1,2.8c-0.3,0.8-0.4,1.4-0.4,2s2.1,1.2,2.4,1.3
					c0.3,0.1,1.1-0.1,1.2-0.2c0.1-0.1,0.3,0.3,0.3-0.2s-0.8-1.9-1-2c-0.3-0.1-0.6-0.9-0.7-1.5c-0.1-0.5,0-1.2,0-1.7s0.1-1.4,0-2
					s0.1-0.8,0.2-0.8c0.1,0,0.7-2.2,1.2-3.6c0.5-1.5,0.9-3.7,0.9-3.7s0.3-0.1,0.4,0.3c0.1,0.3,0.3,0.5,0.5,0.7s0.3,1.1,0.3,1.1
					c-1.3,2.1-0.2,2.4-0.3,2.8c-0.1,0.4-0.2,0.9,0,1.7s0.5,1.1,0.5,1.3s0,0.3,0.3,0.7s0.5,1.1,0.5,1.4c-0.1,0.4,0.1,1.6,0.3,1.8
					c0.1,0.2,0.7,0.3,0.8,0.4c0.1,0.1,0.4,0.3,0.5,0.4c0.1,0.1,0.6-0.1,0.7-0.1c0.1,0,0.3,0.3,0.7,0.1c0.3-0.2,1.1,0.2,1.1-0.3
					s-1.3-1.6-1.3-1.8s-0.5-0.9-0.9-1.2c-0.3-0.3-0.5-1.8-0.3-2.2c0.1-0.3-0.3-1.7-0.4-2.1c-0.1-0.4,0.2-1.1,0.3-1.5
					c0.1-0.5-0.1-1.2,0.2-1.1c0.3,0.1,3.4,0.6,3.8,0.6c0.4,0,0.8,0.1,1,0.1s0.4,0.4,0.6,0.9c0.2,0.5,0.1,1.6,0.4,2.6
					c0.3,1.1,0.8,1.9,1.1,2.4s0.1,0.6,0.2,1.1c0.1,0.5,0.1,0.7,0.1,0.9c0,0.3-0.1,0.7-0.1,0.8c-0.1,0.2,0,0.5-0.1,0.9
					s-0.7,0.6-0.7,0.6s0.5-0.1,0.5,0.1c0,0.1-0.7,1.1-0.7,1.1h0.2c0,0,0,0.2,0,0.3c0.1-0.1,0.5-0.4,0.5-0.4s0,0.3-0.1,0.5
					s-0.3,0.7-0.2,1.1c0.1,0.4,1.3,1.1,2.1,1.2c0.8,0.1,0.6-0.1,0.6-0.1v-0.5c0,0,0.7,0.3,1,0.3c0.4,0-0.1-0.5-0.1-0.5
					s-0.4-0.1-0.6-1.3c-0.2-0.4-0.3-0.8-0.3-1.4c0.1-0.8,0.1-2,0.2-3c-0.1-1.6-0.3-3-0.3-3c-0.4-0.6-0.1-1.5-0.5-2.3
					c-0.4-0.9-0.1-1.7-0.1-1.7l0.4-0.8h0.4c0,0,0.3,0.6,0.3,0.8c0,0.1,0,1.1-0.2,1.1c-0.1,0,0.2,3.2,0.2,4.1c0,0.4,0,1.1-0.1,1.8
					c0.1,1,0.1,2.1,0.1,3c0,0.6,0,1,0,1.4c0.3,0.6,0.7,0.9,0.7,0.9c0.8,0.2,1.9,0,1.9,0l-0.1-0.3h0.5c0-0.5-1.4-1.7-1.4-1.7
					s-0.3-0.1-0.4-1.2c-0.1-1.1-0.3-0.6,0.1-1.6c0.4-1,0.6-2.8,0.6-3.5s0.6-1.5,0.8-2c0.1-0.5,0.3-1.9,0.4-2.1
					c0.1-0.2,0.3-1.1,0.5-1.6s0.5-2.3,0.5-3.1s0.4-1,0.5-1.7s-0.5-3-0.8-3.4c-0.2-0.4-0.1-1.6-0.1-2.1s0.1-0.8,0.4-0.4
					c0.3,0.5,0.1,1,0.1,1s-0.1,0.1,0.1,0c0.3-0.1,0.2-0.7,0.1-1.2c-0.1-0.5-0.5-2.5-0.5-3s0.1,0.1,0.5-1.1c0.4-1.2,0.6-0.7,0.7-0.9
					c0.1-0.1,0.2-0.8,0.5-1.2c0.3-0.5,0.5-1.5,0.5-1.6s0.3-0.5,0.5-0.9c0.3-0.4,0.4-1.6,0.4-1.6s0.3-0.1,0.7,0s1-0.2,2.1-0.6
					c1-0.4,1.1-1,1.3-1C245.1,122.8,246.1,122.3,245.8,122"/>
			</g>
			<g>
				<path class="st1" d="M230.6,158.7L230.6,158.7L230.6,158.7"/>
			</g>
		</g>
		<g>
			<path class="st1" d="M258.8,153.3c-1.4,1.6-2.9,2.6-4.8,2.6c-5,0-8.4-2.4-8.4-9v-9.6c0-6.6,3.5-9,8.4-9c5.2,0,8,3,8.2,9.1h-5.1
				c0-3.4-1.3-4.6-3.1-4.6c-2,0-3.3,0.8-3.3,3.8v10.9c0,3,1.3,3.8,3.3,3.8c1.9,0,3.1-1.4,3.1-3.7V146h-3.6v-4.2h8.7v13.7h-2.7
				L258.8,153.3z"/>
			<path class="st1" d="M264.3,137.4c0-6.6,3.5-9,8.4-9s8.4,2.4,8.4,9v9.6c0,6.6-3.5,9-8.4,9c-5,0-8.4-2.4-8.4-9V137.4z
				 M269.4,147.6c0,3,1.3,3.8,3.3,3.8s3.3-0.8,3.3-3.8v-10.9c0-3-1.3-3.8-3.3-3.8s-3.3,0.8-3.3,3.8V147.6z"/>
			<path class="st1" d="M281.4,155.5l6.6-26.7h6.6l6.4,26.7h-4.9l-1.3-5.6h-7.1l-1.4,5.6H281.4z M288.7,145.4h5.1l-2.5-10.8h-0.1
				L288.7,145.4z"/>
			<path class="st1" d="M315.7,128.8v4.5h-6v22.2h-5.1v-22.2h-6v-4.5H315.7z"/>
		</g>
	</g>
</g>
<g>
	<g>
		<path class="st1" d="M187.8,111h-0.6v-0.4c0.6-0.1,0.7-0.3,0.9-0.6h0.4v4h-0.7L187.8,111L187.8,111z"/>
		<path class="st1" d="M189.9,111.4c0-0.8,0.5-1.4,1.3-1.4s1.3,0.5,1.3,1.4v1.3c0,0.8-0.5,1.4-1.3,1.4s-1.3-0.5-1.3-1.4V111.4z
			 M190.6,112.6c0,0.6,0.2,0.8,0.6,0.8c0.4,0,0.6-0.2,0.6-0.8v-1.2c0-0.6-0.2-0.8-0.6-0.8c-0.4,0-0.6,0.2-0.6,0.8V112.6z"/>
		<path class="st1" d="M193.6,111.4c0-0.8,0.5-1.4,1.3-1.4s1.3,0.5,1.3,1.4v1.3c0,0.8-0.5,1.4-1.3,1.4s-1.3-0.5-1.3-1.4V111.4z
			 M194.3,112.6c0,0.6,0.2,0.8,0.6,0.8s0.6-0.2,0.6-0.8v-1.2c0-0.6-0.2-0.8-0.6-0.8s-0.6,0.2-0.6,0.8V112.6z"/>
		<path class="st1" d="M199.3,111c0,0.5-0.4,1-1,1s-1-0.4-1-1c0-0.5,0.4-1,1-1S199.3,110.5,199.3,111z M197.9,111
			c0,0.2,0.2,0.4,0.4,0.4s0.4-0.2,0.4-0.4c0-0.2-0.2-0.4-0.4-0.4C198.1,110.6,197.9,110.8,197.9,111z M200.5,110h0.5l-2.3,4.1h-0.5
			L200.5,110z M201.8,113c0,0.5-0.4,1-1,1s-1-0.4-1-1c0-0.5,0.4-1,1-1S201.8,112.5,201.8,113z M200.4,113c0,0.2,0.2,0.4,0.4,0.4
			s0.4-0.2,0.4-0.4s-0.2-0.4-0.4-0.4S200.4,112.8,200.4,113z"/>
		<path class="st1" d="M205.7,112.8c0,0.4,0.2,0.6,0.5,0.6s0.5-0.1,0.5-0.6v-0.3h0.8v0.2c0,1-0.5,1.3-1.3,1.3s-1.3-0.4-1.3-1.3v-1.4
			c0-1,0.5-1.3,1.3-1.3s1.3,0.4,1.3,1.3l0,0h-0.8v-0.1c0-0.4-0.2-0.6-0.5-0.6s-0.5,0.1-0.5,0.6V112.8z"/>
		<path class="st1" d="M208.3,114l1-4h1l1,4h-0.7l-0.2-0.8h-1L209,114H208.3z M209.4,112.5h0.8l-0.4-1.6l0,0L209.4,112.5z"/>
		<path class="st1" d="M213.9,111.2c-0.1-0.4-0.3-0.5-0.6-0.5s-0.4,0.2-0.4,0.4c0,0.6,1.7,0.6,1.7,1.9c0,0.7-0.5,1.1-1.3,1.1
			c-0.6,0-1.1-0.3-1.3-1.1l0.7-0.2c0.1,0.5,0.4,0.6,0.6,0.6c0.3,0,0.5-0.2,0.5-0.5c0-0.7-1.7-0.8-1.7-1.9c0-0.7,0.4-1.1,1.2-1.1
			c0.7,0,1.1,0.4,1.2,1L213.9,111.2z"/>
		<path class="st1" d="M215.8,114v-4h0.8v1.6h1.1V110h0.8v4h-0.8v-1.7h-1.1v1.7H215.8z"/>
		<path class="st1" d="M219.6,114v-4h1.1l0.7,2.6l0,0l0.7-2.6h1.1v4h-0.6v-3.1l0,0l-0.8,3.1h-0.6l-0.8-3.1l0,0v3.1H219.6z"/>
		<path class="st1" d="M224.3,114v-4h2.1v0.7h-1.3v0.9h1v0.7h-1v1h1.4v0.7L224.3,114L224.3,114z"/>
		<path class="st1" d="M229.4,114l-0.7-1.6h-0.4v1.6h-0.8v-4h1.1c0.9,0,1.3,0.4,1.3,1.2c0,0.5-0.2,0.9-0.6,1l0.7,1.8H229.4
			L229.4,114z M228.4,111.8h0.4c0.3,0,0.5-0.2,0.5-0.5s-0.2-0.5-0.5-0.5h-0.4V111.8z"/>
		<path class="st1" d="M231.3,114v-4h2.1v0.7H232v0.9h1v0.7h-1v1h1.4v0.7L231.3,114L231.3,114z"/>
	</g>
	<g>
		<g>
			<path class="st1" d="M148.3,85.8c-0.7-2-1.6-2.9-3-2.9c-1.5,0-2.3,0.9-2.3,2.4c0,3.3,9.2,3.5,9.2,10.3c0,3.7-2.5,6.2-6.9,6.2
				c-3.4,0-6-1.8-7.1-6.1l4.1-0.9c0.5,2.6,2,3.5,3.2,3.5c1.4,0,2.5-1,2.5-2.6c0-4.1-9.2-4.1-9.2-10.2c0-3.7,2.2-6.1,6.5-6.1
				c3.7,0,5.9,2.2,6.6,5.2L148.3,85.8z"/>
			<path class="st1" d="M153.7,86.7c0-5.3,2.8-7.2,6.8-7.2s6.8,1.9,6.8,7.2v7.7c0,5.3-2.8,7.2-6.8,7.2s-6.8-1.9-6.8-7.2V86.7z
				 M157.8,95c0,2.4,1,3.1,2.7,3.1s2.7-0.7,2.7-3.1v-8.8c0-2.4-1-3.1-2.7-3.1s-2.7,0.7-2.7,3.1V95z"/>
			<path class="st1" d="M168.9,101.4V79.8h10.8v3.7H173v5h5.2V92H173v9.3L168.9,101.4L168.9,101.4z"/>
			<path class="st1" d="M194.2,79.8v3.7h-4.8v18h-4.1v-18h-4.8v-3.7H194.2z"/>
		</g>
		<g>
			<g>
				<path class="st1" d="M225.8,74.2c-0.2-0.3-1-0.2-1.2-0.2c-0.1,0-0.9,0-1.5-0.3s-1.4,0.2-1.6,0.3c-0.2,0.1-0.4-0.5-0.4-1.3
					s0.6-2.2,0.7-2.5c0.1-0.3,0.3-1.1,0.1-1.2s-0.4,0.3-1,0.8c-0.5,0.5-1.8,3.4-1.9,3.4c-0.1,0-1,0.4-1,0.4c-0.1,0-0.5-0.3-0.8-0.4
					s-1-1.7-1.5-2.7s-0.8-1.3-0.9-1.2c-0.1,0.1,0.1,2,0.3,2.9s0.4,1.4,0.4,1.4s0.3,0.3-0.2,0.6c-0.5,0.3-0.8-0.2-1.1-0.3
					c-0.3-0.1-0.9-0.2-1.1-0.3c-0.2-0.1-0.9-0.6-1.5-0.4c-0.6,0.3-0.2,0.3-0.1,0.9c0.1,0.6,0.6,0.5,0.8,1.3c0.2,0.7,0.8,0.5,1,1.1
					c0.3,0.6,1.3,0.2,1.4,0.3c0.1,0.1,0.1,0.2,0.3,0.4c0.2,0.2,0.1,0.5,0.2,0.7c0.1,0.2,0.3,1.2,0.3,1.4c0,0.2-0.2,0.1-0.4,0.4
					c-0.3,0.3-0.3,0.3-0.5,0.6c-0.2,0.3-0.4,0.6-0.4,0.6s-1-0.1-1.3-0.3c-0.4-0.2-1.8-0.4-2.3-0.6c-0.5-0.3-1.9-0.7-2.3-0.7
					c-1.6-0.3-2.5-0.4-3.8-0.2l0,0l0,0c-0.1,0-0.3,0-0.4,0.1c-0.7,0.1-1.1,0.2-2.6,1.2c-0.2,0.1-0.4,0.3-0.5,0.5
					c-0.5,0.4-0.8,0.9-1,1.4c-0.3,0.7-0.1,1.7-0.1,2.4c0,2.6-2.2,2.8-2.2,2.9s1.1,0.3,1.5,0c0,0,0,0.6-0.7,0.8
					c-0.6,0.2,1.4,0.5,2.1-0.9c0,0.1,0.2,1.6,0.2,2.4c0,0.7,0.6,2,0.9,2.6c0.3,0.5,0.6,1.9,0.5,2.5s-0.8,1.9-0.9,2
					c-0.1,0.1,0.1,0.6,0.2,0.8c0.1,0.2,0.2,0.3,0.2,0.5c0,0.3,0.1,1.2,0.1,1.3c0,0.2,0.3,1.6,0.1,2.2c-0.3,0.6-0.3,1.2-0.3,1.6
					c0,0.5,1.7,1,2,1.1s0.9-0.1,1-0.1s0.2,0.3,0.2-0.1s-0.6-1.5-0.8-1.6c-0.2,0-0.5-0.8-0.6-1.2c-0.1-0.4,0-1,0-1.4s0.1-1.1,0-1.6
					c0-0.5,0.1-0.6,0.2-0.6c0.1,0,0.6-1.8,1-2.9c0.4-1.2,0.8-3,0.8-3s0.3,0,0.3,0.2c0.1,0.3,0.3,0.4,0.4,0.5
					c0.2,0.2,0.3,0.9,0.3,0.9c-1,1.7-0.2,1.9-0.2,2.2c-0.1,0.3-0.2,0.7,0,1.4c0.2,0.6,0.4,0.9,0.4,1s0,0.2,0.2,0.5s0.4,0.9,0.4,1.2
					c-0.1,0.3,0.1,1.3,0.2,1.5c0.1,0.2,0.6,0.3,0.7,0.3c0.1,0.1,0.3,0.3,0.4,0.4c0.1,0.1,0.5,0,0.6,0s0.3,0.3,0.6,0.1
					c0.3-0.2,0.9,0.2,0.9-0.2c0-0.4-1-1.3-1-1.5s-0.4-0.7-0.7-1c-0.3-0.2-0.4-1.5-0.3-1.8c0.1-0.3-0.2-1.4-0.3-1.7
					c-0.1-0.3,0.2-0.9,0.3-1.2c0.1-0.4-0.1-1,0.2-0.9c0.2,0.1,2.8,0.5,3,0.5c0.3,0,0.7,0,0.8,0c0.2,0,0.3,0.3,0.5,0.7
					c0.2,0.4,0.1,1.3,0.3,2.1c0.2,0.8,0.6,1.5,0.9,2c0.3,0.4,0.1,0.5,0.2,0.9c0.1,0.4,0,0.5,0,0.7s0,0.5-0.1,0.7s0,0.4-0.1,0.7
					c-0.1,0.3-0.5,0.5-0.5,0.5s0.4,0,0.4,0.1s-0.6,0.9-0.6,0.9h0.2v0.2c0.1-0.1,0.4-0.3,0.4-0.3s0,0.2-0.1,0.4
					c-0.1,0.2-0.3,0.5-0.2,0.9c0.1,0.3,1,0.9,1.7,1s0.5-0.1,0.5-0.1v-0.4c0,0,0.5,0.2,0.8,0.2s-0.1-0.4-0.1-0.4s-0.4-0.1-0.5-1
					c-0.2-0.3-0.3-0.7-0.2-1.1c0.1-0.7,0.1-1.6,0.2-2.4c-0.1-1.3-0.3-2.4-0.3-2.4c-0.3-0.5-0.1-1.2-0.4-1.9
					c-0.3-0.7-0.1-1.4-0.1-1.4l0.3-0.6h0.3c0,0,0.2,0.5,0.2,0.6s0,0.9-0.1,0.9s0.1,2.6,0.1,3.3c0,0.3,0,0.9-0.1,1.5
					c0.1,0.8,0.1,1.7,0.1,2.4c0,0.5,0,0.8,0,1.1c0.2,0.5,0.6,0.7,0.6,0.7c0.6,0.2,1.5,0,1.5,0l-0.1-0.2h0.4c0-0.4-1.1-1.4-1.1-1.4
					s-0.2-0.1-0.3-1s-0.2-0.5,0.1-1.3s0.5-2.2,0.5-2.8c0-0.6,0.5-1.2,0.6-1.6s0.2-1.5,0.3-1.7s0.2-0.9,0.4-1.3s0.4-1.9,0.4-2.5
					s0.3-0.8,0.4-1.4c0.1-0.6-0.4-2.4-0.6-2.7c-0.2-0.3-0.1-1.3-0.1-1.7c0-0.4,0.1-0.7,0.3-0.3c0.2,0.4,0.1,0.8,0.1,0.8
					s-0.1,0.1,0.1,0c0.2-0.1,0.2-0.6,0.1-1c-0.1-0.4-0.4-2-0.4-2.4s0.1,0.1,0.4-0.9c0.3-1,0.5-0.6,0.6-0.7s0.2-0.6,0.4-1
					s0.4-1.2,0.4-1.3c0-0.1,0.2-0.4,0.4-0.7c0.2-0.3,0.3-1.3,0.3-1.3s0.2-0.1,0.5,0s0.8-0.2,1.7-0.5c0.8-0.3,0.9-0.8,1-0.8
					C225.2,74.9,226,74.5,225.8,74.2"/>
			</g>
			<g>
				<path class="st1" d="M213.5,104C213.5,104,213.5,103.9,213.5,104C213.5,103.9,213.5,104,213.5,104"/>
			</g>
		</g>
		<g>
			<path class="st1" d="M236.2,99.6c-1.1,1.3-2.3,2.1-3.9,2.1c-4,0-6.8-1.9-6.8-7.2v-7.7c0-5.3,2.8-7.2,6.8-7.2
				c4.2,0,6.5,2.4,6.6,7.3h-4.1c0-2.8-1-3.7-2.5-3.7c-1.6,0-2.7,0.7-2.7,3.1V95c0,2.4,1,3.1,2.7,3.1c1.6,0,2.5-1.1,2.5-3v-1.3H232
				v-3.4h7v11.1h-2.2L236.2,99.6z"/>
			<path class="st1" d="M240.7,86.7c0-5.3,2.8-7.2,6.8-7.2s6.8,1.9,6.8,7.2v7.7c0,5.3-2.8,7.2-6.8,7.2s-6.8-1.9-6.8-7.2V86.7z
				 M244.9,95c0,2.4,1,3.1,2.7,3.1s2.7-0.7,2.7-3.1v-8.8c0-2.4-1-3.1-2.7-3.1s-2.7,0.7-2.7,3.1V95z"/>
			<path class="st1" d="M254.6,101.4l5.4-21.6h5.3l5.2,21.6h-4l-1-4.6h-5.7l-1.2,4.6H254.6z M260.5,93.2h4.1l-2-8.7h-0.1L260.5,93.2
				z"/>
			<path class="st1" d="M282.3,79.8v3.7h-4.8v18h-4.1v-18h-4.8v-3.7H282.3z"/>
		</g>
	</g>
</g>
<g>
	<g>
		<path class="st2" d="M73.5,126.7c-0.5-0.7-2.6-0.5-2.9-0.5s-2.3-0.1-3.9-0.8c-1.6-0.7-3.4,0.5-4,0.8c-0.5,0.3-1-1.3-1-3.3
			s1.6-5.6,1.8-6.4s0.7-2.8,0.3-3c-0.5-0.3-1.1,0.8-2.4,2.1c-1.3,1.3-4.5,8.6-4.7,8.6s-2.4,1-2.6,1c-0.2,0.1-1.4-0.8-2.1-1.1
			c-0.8-0.3-2.4-4.3-3.7-6.8s-2.1-3.3-2.3-3.1c-0.2,0.2,0.2,5.1,0.8,7.4c0.5,2.3,1,3.6,1,3.6s0.7,0.7-0.5,1.5s-1.9-0.4-2.8-0.7
			c-0.8-0.3-2.2-0.5-2.7-0.8c-0.4-0.2-2.4-1.6-3.7-1c-1.4,0.7-0.4,0.7-0.3,2.3c0.2,1.6,1.5,1.3,2.1,3.2c0.6,1.8,1.9,1.4,2.6,2.8
			c0.7,1.5,3.3,0.4,3.5,0.8c0.1,0.4,0.3,0.5,0.7,1.1c0.4,0.5,0.3,1.2,0.4,1.8c0.2,0.5,0.7,3,0.7,3.5s-0.4,0.4-1.1,1.1
			c-0.7,0.7-0.8,0.8-1.4,1.5c-0.6,0.6-1.1,1.5-1.1,1.5s-2.4-0.3-3.4-0.7c-0.9-0.4-4.5-1-5.7-1.6c-1.3-0.7-4.8-1.7-5.9-1.9
			c-3.9-0.9-6.2-0.9-9.7-0.4l0,0l0,0c-0.3,0-0.7,0.1-1,0.2c-1.8,0.3-2.9,0.6-6.6,3.1c-0.5,0.3-0.9,0.8-1.2,1.3
			c-1.3,1.1-2.1,2.3-2.6,3.6c-0.7,1.7-0.2,4.2-0.2,6c0,6.4-5.7,7.1-5.6,7.3s2.8,0.6,3.8-0.1c0.1-0.1,0,1.4-1.7,1.9
			c-1.5,0.4,3.6,1.1,5.2-2.3c0.1,0.2,0.4,4.1,0.6,6c0.1,1.9,1.6,5.1,2.4,6.5c0.8,1.3,1.4,4.7,1.2,6.3s-2,4.8-2.3,5.1s0.3,1.6,0.6,2
			s0.6,0.7,0.6,1.3c0,0.7,0.4,3,0.4,3.4s0.9,4,0.2,5.6s-0.8,3-0.8,4.2s4.3,2.5,5,2.7s2.2-0.3,2.5-0.4c0.3-0.1,0.6,0.6,0.6-0.3
			c0-1-1.6-3.9-2.1-4s-1.2-1.9-1.4-3c-0.3-1.1,0-2.5,0-3.5s0.2-2.8,0-4c-0.1-1.2,0.3-1.6,0.4-1.6s1.4-4.4,2.5-7.4s1.9-7.5,1.9-7.5
			s0.7-0.1,0.8,0.6c0.2,0.7,0.7,0.9,1.1,1.3c0.4,0.4,0.7,2.2,0.7,2.2c-2.6,4.3-0.5,4.9-0.6,5.7s-0.4,1.9,0,3.5s0.9,2.2,0.9,2.6
			c0,0.4,0,0.5,0.6,1.3s1.1,2.2,1,3c-0.2,0.8,0.3,3.3,0.6,3.8c0.3,0.4,1.5,0.6,1.7,0.8s0.8,0.7,1,0.9c0.3,0.3,1.2-0.1,1.4-0.1
			c0.2,0,0.7,0.7,1.4,0.3c0.7-0.4,2.2,0.5,2.2-0.6s-2.6-3.3-2.6-3.8c0-0.4-1.1-1.9-1.8-2.4c-0.7-0.5-1-3.8-0.7-4.4
			c0.3-0.6-0.5-3.5-0.8-4.3s0.4-2.2,0.7-3.1c0.3-1-0.2-2.5,0.4-2.3c0.6,0.3,7,1.2,7.7,1.2c0.7,0,1.7,0.1,2.1,0.1
			c0.4,0,0.8,0.8,1.2,1.8s0.3,3.2,0.8,5.4c0.6,2.1,1.6,3.9,2.2,4.9c0.7,1.1,0.2,1.2,0.4,2.3c0.3,1.1,0.1,1.3,0.1,1.9
			c0,0.5-0.1,1.4-0.3,1.7c-0.1,0.4-0.1,1-0.3,1.8c-0.1,0.8-1.3,1.2-1.3,1.2s1.1-0.1,1.1,0.2s-1.5,2.3-1.5,2.3h0.4
			c0,0,0.1,0.4,0.1,0.6c0.2-0.2,1-0.7,1-0.7s0,0.5-0.3,0.9s-0.7,1.4-0.4,2.2s2.6,2.3,4.2,2.5c1.7,0.3,1.3-0.3,1.3-0.3v-1
			c0,0,1.3,0.5,2.1,0.5c0.7,0-0.3-1-0.3-1s-0.9-0.3-1.2-2.6c-0.4-0.7-0.7-1.7-0.6-2.8c0.1-1.7,0.3-4.1,0.4-6.1
			c-0.3-3.3-0.7-6.1-0.7-6.1c-0.8-1.3-0.2-3-1.1-4.8c-0.8-1.7-0.2-3.6-0.2-3.6l0.8-1.5h0.8c0,0,0.5,1.3,0.5,1.5s0,2.3-0.3,2.3
			s0.3,6.6,0.3,8.4c0,0.8-0.1,2.2-0.1,3.8c0.2,2,0.3,4.3,0.1,6.1c-0.1,1.2,0,2.1,0.1,2.8c0.6,1.2,1.5,1.8,1.5,1.8
			c1.6,0.5,3.9,0,3.9,0l-0.2-0.6h1c0-1-2.9-3.5-2.9-3.5s-0.5-0.3-0.8-2.5c-0.3-2.3-0.5-1.3,0.3-3.3s1.2-5.7,1.2-7.2s1.3-3,1.6-4.1
			c0.3-1,0.5-3.8,0.8-4.3c0.2-0.5,0.5-2.3,1.1-3.3c0.5-1,1-4.8,1-6.3s0.8-2,1-3.6c0.2-1.5-1-6.2-1.6-6.9c-0.5-0.7-0.2-3.3-0.2-4.4
			c0-1,0.3-1.7,0.8-0.7s0.2,2,0.2,2s-0.2,0.2,0.3,0s0.5-1.5,0.2-2.5c-0.2-1-1.1-5.1-1.1-6.1s0.3,0.2,1.1-2.3
			c0.7-2.5,1.3-1.5,1.5-1.7c0.2-0.3,0.4-1.5,0.9-2.6c0.5-1,1.1-3,1.1-3.3s0.5-1,1.1-1.7c0.5-0.7,0.8-3.3,0.8-3.3s0.5-0.3,1.3-0.1
			s2.1-0.5,4.2-1.2s2.3-2,2.6-2C72,128.4,74.1,127.4,73.5,126.7"/>
	</g>
	<g>
		<path class="st2" d="M42.4,201.7C42.4,201.7,42.5,201.7,42.4,201.7L42.4,201.7"/>
	</g>
</g>
<g>
	<g>
		<path class="st2" d="M134.2,143.6c-0.4-0.6-2.1-0.4-2.3-0.4s-1.8-0.1-3.1-0.7c-1.2-0.6-2.7,0.4-3.2,0.6c-0.4,0.2-0.8-1-0.8-2.6
			s1.2-4.4,1.4-5.1c0.2-0.6,0.6-2.2,0.2-2.4s-0.9,0.6-1.9,1.7c-1,1-3.6,6.9-3.8,6.9c-0.2,0-1.9,0.8-2.1,0.8
			c-0.2,0.1-1.1-0.6-1.7-0.9c-0.6-0.2-1.9-3.4-2.9-5.4s-1.7-2.6-1.9-2.4c-0.2,0.2,0.2,4,0.6,5.9c0.4,1.8,0.8,2.8,0.8,2.8
			s0.6,0.5-0.4,1.2c-1,0.6-1.5-0.3-2.2-0.5c-0.6-0.2-1.8-0.4-2.1-0.6c-0.3-0.2-1.9-1.3-3-0.8s-0.3,0.6-0.2,1.8
			c0.1,1.3,1.2,1.1,1.7,2.5c0.4,1.5,1.5,1.1,2.1,2.3c0.5,1.2,2.6,0.3,2.8,0.6c0.1,0.3,0.2,0.4,0.5,0.8c0.3,0.4,0.2,1,0.3,1.4
			c0.1,0.4,0.5,2.3,0.5,2.8c0,0.4-0.3,0.3-0.9,0.9c-0.5,0.5-0.7,0.6-1.1,1.2c-0.5,0.5-0.9,1.2-0.9,1.2s-1.9-0.2-2.7-0.5
			c-0.7-0.3-3.5-0.8-4.5-1.3s-3.8-1.3-4.6-1.5c-3.1-0.7-4.9-0.7-7.7-0.3l0,0l0,0c-0.3,0-0.5,0.1-0.8,0.1c-1.4,0.2-2.3,0.5-5.2,2.5
			c-0.4,0.3-0.7,0.6-1,1c-1,0.9-1.7,1.8-2.1,2.9c-0.5,1.4-0.2,3.3-0.2,4.7c0,5.1-4.5,5.6-4.4,5.8s2.2,0.5,3-0.1
			c0.1-0.1,0,1.1-1.4,1.5c-1.2,0.4,2.9,0.9,4.1-1.8c0.1,0.2,0.3,3.2,0.4,4.7s1.2,4,1.9,5.1c0.7,1.1,1.1,3.7,1,5s-1.6,3.8-1.8,4
			c-0.2,0.2,0.2,1.3,0.4,1.6c0.2,0.3,0.4,0.5,0.4,1.1c0,0.5,0.3,2.3,0.3,2.7c0,0.3,0.7,3.2,0.1,4.5c-0.5,1.3-0.7,2.3-0.7,3.3
			c0,0.9,3.4,2,4,2.1c0.5,0.1,1.8-0.2,2-0.3s0.4,0.5,0.4-0.3s-1.2-3.1-1.6-3.2c-0.4-0.1-0.9-1.5-1.1-2.4s0-2,0-2.8s0.1-2.2,0-3.2
			s0.2-1.3,0.3-1.3c0.1,0,1.1-3.5,2-5.8c0.9-2.4,1.5-6,1.5-6s0.5-0.1,0.7,0.5c0.1,0.5,0.5,0.7,0.9,1.1c0.4,0.3,0.5,1.7,0.5,1.7
			c-2.1,3.4-0.4,3.9-0.5,4.5s-0.3,1.5,0,2.8s0.7,1.7,0.7,2s0,0.4,0.4,1.1c0.5,0.6,0.9,1.7,0.8,2.4c-0.1,0.6,0.2,2.6,0.5,3
			c0.2,0.3,1.2,0.5,1.4,0.6c0.2,0.1,0.6,0.5,0.8,0.7c0.2,0.2,1-0.1,1.1-0.1s0.5,0.5,1.1,0.2s1.7,0.4,1.7-0.5s-2.1-2.7-2.1-3
			s-0.9-1.5-1.5-1.9s-0.8-3-0.5-3.5c0.2-0.5-0.4-2.8-0.7-3.4c-0.2-0.6,0.3-1.7,0.6-2.5c0.2-0.8-0.1-2,0.3-1.8s5.5,0.9,6.1,1
			c0.6,0,1.3,0.1,1.6,0.1c0.3,0,0.7,0.6,1,1.4c0.3,0.8,0.2,2.6,0.7,4.3s1.2,3.1,1.8,3.9c0.5,0.9,0.1,1,0.4,1.8
			c0.2,0.8,0.1,1.1,0.1,1.5s-0.1,1.1-0.2,1.4c-0.1,0.3-0.1,0.8-0.2,1.4c-0.1,0.6-1.1,0.9-1.1,0.9s0.8-0.1,0.8,0.1s-1.2,1.8-1.2,1.8
			h0.3c0,0,0.1,0.4,0.1,0.5c0.1-0.1,0.8-0.6,0.8-0.6s0,0.4-0.2,0.7s-0.5,1.1-0.3,1.7c0.2,0.6,2,1.8,3.3,2s1-0.2,1-0.2v-0.8
			c0,0,1.1,0.4,1.7,0.4s-0.2-0.8-0.2-0.8s-0.7-0.2-1-2c-0.3-0.6-0.5-1.3-0.5-2.2c0.1-1.3,0.2-3.2,0.3-4.9c-0.2-2.6-0.5-4.8-0.5-4.8
			c-0.6-1-0.2-2.4-0.8-3.8c-0.6-1.4-0.2-2.8-0.2-2.8l0.6-1.2h0.6c0,0,0.4,1,0.4,1.2s0,1.8-0.2,1.8s0.2,5.2,0.2,6.6
			c0,0.6,0,1.7-0.1,3c0.1,1.6,0.2,3.4,0.1,4.9c-0.1,0.9,0,1.7,0.1,2.2c0.5,0.9,1.2,1.5,1.2,1.5c1.2,0.4,3.1,0,3.1,0l-0.2-0.5h0.8
			c0-0.8-2.3-2.8-2.3-2.8s-0.4-0.2-0.7-2c-0.2-1.8-0.4-1,0.2-2.6c0.7-1.6,1-4.5,1-5.7s1-2.4,1.3-3.2c0.2-0.8,0.4-3,0.6-3.4
			s0.4-1.8,0.8-2.6s0.8-3.8,0.8-5s0.7-1.6,0.8-2.8c0.2-1.2-0.8-4.9-1.3-5.5c-0.4-0.6-0.2-2.6-0.2-3.5c0-0.8,0.2-1.4,0.7-0.6
			c0.4,0.8,0.2,1.6,0.2,1.6s-0.2,0.2,0.2,0c0.4-0.2,0.4-1.2,0.2-2c-0.2-0.8-0.8-4-0.8-4.8s0.2,0.2,0.8-1.8c0.6-2,1-1.2,1.2-1.4
			s0.3-1.2,0.7-2c0.4-0.8,0.8-2.4,0.8-2.6c0-0.2,0.4-0.8,0.8-1.4c0.4-0.6,0.6-2.6,0.6-2.6s0.4-0.2,1.1,0s1.7-0.4,3.3-1
			c1.7-0.6,1.9-1.6,2.1-1.6C133,145,134.6,144.2,134.2,143.6"/>
	</g>
	<g>
		<path class="st2" d="M109.5,203.1L109.5,203.1L109.5,203.1"/>
	</g>
</g>
<path d="M19,244.7c9.7,0,17.5-7.8,17.5-17.5s-7.8-17.5-17.5-17.5s-17.5,7.8-17.5,17.5S9.3,244.7,19,244.7z M21.8,219.5l1.3,1.1
	l-7.3,6.7l7.3,6.7l-1.3,1.1l-8.3-7.7L21.8,219.5z"/>
<path d="M74.5,227.2c0-9.7-7.8-17.5-17.5-17.5s-17.5,7.8-17.5,17.5s7.8,17.5,17.5,17.5S74.5,236.9,74.5,227.2z M62.5,227.2l-8.3,7.7
	l-1.3-1.1l7.3-6.7l-7.3-6.7l1.3-1.1L62.5,227.2z"/>
<path d="M95,244.7c9.7,0,17.5-7.8,17.5-17.5s-7.8-17.5-17.5-17.5s-17.5,7.8-17.5,17.5S85.3,244.7,95,244.7z M95,232.7l-7.7-8.3
	l1.1-1.3l6.7,7.3l6.7-7.3l1.1,1.3L95,232.7z"/>
<path d="M119,7c-5.5,0-10,4.5-10,10s4.5,10,10,10s10-4.5,10-10S124.5,7,119,7z M119.7,21.8c-0.2,0.2-0.5,0.3-0.8,0.3
	s-0.6-0.1-0.8-0.3s-0.3-0.5-0.3-0.8s0.1-0.6,0.3-0.8s0.5-0.3,0.8-0.3s0.6,0.1,0.8,0.3c0.2,0.2,0.3,0.5,0.3,0.8
	S119.9,21.5,119.7,21.8z M121.5,15.6c-0.2,0.2-0.3,0.4-0.4,0.5s-0.2,0.2-0.4,0.4c-0.2,0.2-0.3,0.3-0.4,0.4s-0.2,0.2-0.3,0.3
	c-0.2,0.2-0.3,0.5-0.3,0.9v0.7H118v-0.9c0-0.4,0-0.7,0.1-0.9s0.3-0.4,0.6-0.8l1.1-1.1c0.2-0.2,0.3-0.6,0.3-0.9
	c0-0.4-0.1-0.7-0.4-0.9s-0.5-0.4-0.9-0.4s-0.7,0.1-0.9,0.4c-0.3,0.2-0.4,0.5-0.4,0.9h-1.8c0.1-0.9,0.4-1.6,1-2.1s1.3-0.8,2.2-0.8
	c0.9,0,1.6,0.2,2.2,0.7s0.8,1.2,0.8,2C122,14.7,121.8,15.2,121.5,15.6z"/>
<path class="st3" d="M21,247.2c-11,0-20,9-20,20s9,20,20,20s20-9,20-20S32,247.2,21,247.2z M29.3,273.7c-0.4,0.3-0.7,0.6-1.1,0.8
	c-0.2-0.9-0.1-1.7-0.2-2.5c0-0.3-0.4-0.5-0.6-0.7c-0.2,0.2-0.5,0.4-0.7,0.7c-0.1,0.2,0,0.4,0,0.6c0,0.7,0,1.5,0,2.2
	c-0.6,0.1-1.2,0.2-1.8,0.3c0-0.3,0-0.6,0-0.8c0-0.6,0.1-1.2-0.1-1.7c0-0.2-0.4-0.5-0.7-0.6c-0.2,0-0.5,0.4-0.6,0.6s0,0.5,0,0.8
	c0,0.6,0,1.3,0,1.9c-0.5,0.1-1,0.1-1.4,0.2c-0.2,0-0.3,0-0.5,0c0-1.4,0-2.8,0-4.1c0-0.5-0.1-0.9-0.6-0.9s-0.7,0.4-0.7,0.9
	c0,1.4,0,2.8,0,4.1c-0.1,0-0.3,0-0.4,0c-0.5-0.1-1-0.2-1.5-0.3c0-0.9,0-1.8,0-2.6c0-0.4-0.2-0.7-0.6-0.7c-0.5,0-0.6,0.3-0.7,0.7
	c0,0.3,0,0.5,0,0.8c0,0.5,0,1,0,1.6c-0.5-0.2-0.9-0.4-1.3-0.5c-0.4-0.1-0.6-0.4-0.5-0.9c0-0.8,0-1.5,0-2.3c0-0.5-0.1-0.8-0.7-0.8
	c-0.5,0-0.6,0.4-0.6,0.9c0,0.6,0,1.1,0,1.7c-0.1,0-0.2,0-0.3,0.1c-0.3-0.7-0.6-1.5-1-2.2c0-2.5,0-5.1,0-7.6c0-0.1,0.1-0.2,0.1-0.3
	c0.3-1.3,0.9-2.3,2.1-2.9c0.8-0.4,1.6-0.6,2.4-0.8c0.6-0.1,1.2-0.2,1.8-0.3c0.9,0,1.7,0,2.6,0c0.3,0,0.7,0.1,1,0.1
	c1.3,0.1,2.5,0.3,3.6,1.1c1.3,0.9,1.3,2.4,0,3.3c-0.2,0.2-0.5,0.3-0.7,0.4c-2.7,1-5.5,1-8.3,0.2c-0.7-0.2-1.4-0.5-1.3-1.4
	c0-0.9,0.7-1.2,1.4-1.3c1.4-0.3,2.8-0.4,4.2-0.5c0.2,0,0.5,0.3,0.6,0.6c0,0.1-0.3,0.5-0.5,0.6c-0.5,0.1-1,0.1-1.5,0.1
	c-0.9,0.1-1.8,0.3-2.7,0.4c0,0.1,0,0.1,0,0.2c0.2,0.1,0.5,0.2,0.7,0.2c1.6,0.1,3.2,0.3,4.8,0.2c0.9,0,1.8-0.4,2.6-0.8
	c0.8-0.4,0.8-1,0-1.5c-0.3-0.2-0.7-0.4-1.1-0.5c-2.2-0.6-4.5-0.5-6.7-0.2c-1,0.1-1.9,0.4-2.7,1c-1.1,1-1.7,3,0.6,3.8
	c0.2,0.1,0.4,0.2,0.7,0.2c4,0.9,8,0.6,11.8-0.7c0.5-0.2,0.9-0.2,1.2,0.3C29.3,268,29.3,270.9,29.3,273.7z"/>
<path d="M371,209.1c-8.3,0-15,6.7-15,15s6.7,15,15,15s15-6.7,15-15S379.3,209.1,371,209.1z M377.2,228.9c-0.3,0.2-0.6,0.4-0.8,0.6
	c-0.1-0.7-0.1-1.3-0.1-1.8c0-0.2-0.3-0.4-0.4-0.5c-0.2,0.2-0.4,0.3-0.5,0.5c-0.1,0.1,0,0.3,0,0.5c0,0.5,0,1.1,0,1.6
	c-0.5,0.1-0.9,0.2-1.4,0.2c0-0.2,0-0.4,0-0.6c0-0.4,0-0.9,0-1.3c0-0.2-0.3-0.4-0.5-0.4c-0.1,0-0.3,0.3-0.4,0.5s0,0.4,0,0.6
	c0,0.5,0,1,0,1.4c-0.4,0.1-0.7,0.1-1,0.2c-0.1,0-0.3,0-0.4,0c0-1,0-2.1,0-3.1c0-0.3-0.1-0.6-0.5-0.7c-0.4,0-0.5,0.3-0.5,0.7
	c0,1,0,2.1,0,3.1c-0.1,0-0.2,0-0.3,0c-0.4-0.1-0.7-0.2-1.1-0.2c0-0.7,0-1.3,0-2c0-0.3-0.1-0.5-0.5-0.6c-0.3,0-0.5,0.2-0.5,0.5
	c0,0.2,0,0.4,0,0.6c0,0.4,0,0.8,0,1.2c-0.4-0.2-0.7-0.3-1-0.4c-0.3-0.1-0.4-0.3-0.4-0.7c0-0.6,0-1.1,0-1.7c0-0.3-0.1-0.6-0.5-0.6
	s-0.5,0.3-0.5,0.6c0,0.4,0,0.8,0,1.3c-0.1,0-0.1,0-0.2,0.1c-0.2-0.5-0.5-1.1-0.7-1.6c0-1.9,0-3.8,0-5.7c0-0.1,0.1-0.2,0.1-0.3
	c0.2-1,0.7-1.7,1.6-2.2c0.6-0.3,1.2-0.4,1.8-0.6c0.4-0.1,0.9-0.1,1.3-0.2c0.6,0,1.3,0,1.9,0c0.3,0,0.5,0.1,0.8,0.1
	c1,0.1,1.9,0.3,2.7,0.8c1,0.7,0.9,1.8,0,2.5c-0.2,0.1-0.4,0.2-0.5,0.3c-2.1,0.7-4.1,0.8-6.2,0.2c-0.5-0.1-1-0.4-1-1s0.5-0.9,1-1
	c1-0.2,2.1-0.3,3.2-0.4c0.1,0,0.4,0.2,0.4,0.4c0,0.1-0.2,0.4-0.4,0.4c-0.4,0.1-0.8,0-1.2,0.1c-0.7,0.1-1.3,0.2-2,0.3
	c0,0.1,0,0.1,0,0.2c0.2,0.1,0.4,0.2,0.5,0.2c1.2,0.1,2.4,0.2,3.6,0.2c0.7,0,1.4-0.3,2-0.6s0.6-0.8,0-1.1c-0.3-0.2-0.6-0.3-0.8-0.3
	c-1.7-0.4-3.4-0.4-5.1-0.1c-0.7,0.1-1.4,0.3-2,0.8c-0.8,0.8-1.2,2.2,0.4,2.9c0.2,0.1,0.3,0.1,0.5,0.2c3,0.6,6,0.5,8.9-0.5
	c0.4-0.1,0.7-0.2,0.9,0.2C377.2,224.6,377.2,226.8,377.2,228.9z"/>
<g>
	<path class="st3" d="M71.3,266.5c0-0.3-0.1-0.3-0.4-0.3c-3.2,0-6.4,0-9.6,0c-1,0-2,0-2.9,0.1c-1.7,0.2-2.9,1.1-3.5,2.8
		c-0.3,0.9-0.6,1.9-0.9,2.8c-0.1,0.3-0.2,0.7-0.3,1.1c6.2,0,12.3,0,18.5,0c0-0.1,0-0.1,0-0.2C72,270.7,71.6,268.6,71.3,266.5z
		 M59.5,271.3c-0.8,0-1.5-0.7-1.5-1.5s0.6-1.5,1.5-1.5s1.5,0.7,1.5,1.5C61,270.6,60.4,271.2,59.5,271.3z M63.4,271.3
		c-0.8,0-1.5-0.7-1.5-1.5s0.7-1.5,1.5-1.5c0.8,0,1.5,0.7,1.5,1.5C65,270.6,64.3,271.3,63.4,271.3z M67.4,271.3
		c-0.8,0-1.5-0.7-1.5-1.5c0-0.9,0.7-1.5,1.5-1.5s1.5,0.7,1.5,1.5C68.9,270.6,68.2,271.3,67.4,271.3z"/>
	<path class="st3" d="M63,247.2c-11,0-20,9-20,20s9,20,20,20s20-9,20-20S74,247.2,63,247.2z M72.9,274.1c-1.7,0-3.4,0-5.1,0
		c-4.9,0-9.7,0-14.6,0c-0.1,0-0.1,0-0.2,0c-0.4,0-0.6-0.3-0.5-0.7c0.5-1.6,0.9-3.2,1.5-4.8c0.7-2,2.2-3.1,4.2-3.4
		c1-0.1,1.9-0.1,2.9-0.1c3.2,0,6.5,0,9.7,0c0.1,0,0.2,0,0.3,0c-0.2-1.2-0.4-2.4-0.5-3.5c-0.4,0-0.7,0-1,0c-4.2,0-8.5,0-12.7,0
		c-0.4,0-0.6-0.2-0.7-0.5c-0.1-0.4,0.2-0.7,0.6-0.7c0.5,0,1.1,0,1.6,0c4.2,0,8.4,0,12.5,0c0.5,0,0.6,0.2,0.7,0.6
		c0.3,2.1,0.7,4.2,1,6.3c0.3,2,0.6,4.1,0.9,6.2C73.6,273.8,73.3,274.1,72.9,274.1z"/>
</g>
<path class="st1" d="M378.9,9.6c-0.3-0.5-1.7-0.3-1.9-0.3c-0.2,0-1.5-0.1-2.5-0.5c-1-0.5-2.2,0.3-2.6,0.5c-0.3,0.2-0.6-0.8-0.6-2.1
	s1-3.6,1.2-4.1c0.1-0.5,0.5-1.8,0.2-2s-0.7,0.5-1.6,1.4c-0.8,0.8-2.9,5.6-3.1,5.6c-0.1,0-1.6,0.6-1.7,0.7c-0.2,0-0.9-0.5-1.4-0.7
	s-1.6-2.8-2.4-4.4s-1.4-2.1-1.5-2c-0.1,0.1,0.2,3.3,0.5,4.8s0.7,2.3,0.7,2.3s0.5,0.4-0.3,0.9s-1.3-0.3-1.8-0.4
	c-0.5-0.2-1.4-0.3-1.7-0.5c-0.3-0.1-1.5-1-2.4-0.6s-0.3,0.5-0.2,1.5c0.1,1,1,0.9,1.4,2.1s1.3,0.9,1.7,1.8c0.4,0.9,2.2,0.3,2.3,0.5
	c0.1,0.2,0.2,0.3,0.4,0.7c0.3,0.3,0.2,0.8,0.3,1.1c0.1,0.3,0.4,1.9,0.4,2.2c0,0.3-0.3,0.2-0.7,0.7c-0.4,0.4-0.5,0.5-0.9,0.9
	s-0.7,0.9-0.7,0.9s-1.6-0.2-2.2-0.4c-0.6-0.2-2.9-0.6-3.7-1c-0.8-0.4-3.1-1.1-3.8-1.2c-2.5-0.6-4-0.6-6.2-0.3l0,0l0,0
	c-0.2,0-0.4,0.1-0.6,0.1c-1.1,0.2-1.9,0.4-4.3,2c-0.3,0.2-0.6,0.5-0.8,0.8c-0.9,0.7-1.4,1.5-1.7,2.3c-0.4,1.1-0.1,2.7-0.1,3.8
	c0,4.1-3.6,4.5-3.6,4.7c0.1,0.2,1.8,0.4,2.4-0.1c0.1-0.1,0,0.9-1.1,1.2c-1,0.3,2.4,0.7,3.4-1.5c0.1,0.1,0.3,2.6,0.4,3.8
	s1,3.3,1.5,4.1c0.5,0.9,0.9,3,0.8,4.1c-0.1,1-1.3,3.1-1.5,3.3s0.2,1,0.4,1.3c0.2,0.3,0.4,0.4,0.4,0.9c0,0.4,0.2,1.9,0.2,2.2
	s0.5,2.6,0.1,3.6s-0.5,1.9-0.5,2.7s2.8,1.6,3.2,1.7c0.4,0.1,1.4-0.2,1.6-0.2c0.2-0.1,0.4,0.4,0.4-0.2c0-0.6-1-2.5-1.3-2.6
	s-0.7-1.2-0.9-1.9c-0.2-0.7,0-1.6,0-2.2c0-0.6,0.1-1.8,0-2.6s0.2-1,0.3-1c0.1,0,0.9-2.8,1.6-4.7s1.2-4.8,1.2-4.8s0.4-0.1,0.5,0.4
	c0.1,0.4,0.4,0.6,0.7,0.9c0.3,0.3,0.4,1.4,0.4,1.4c-1.7,2.8-0.3,3.1-0.4,3.6s-0.3,1.2,0,2.2s0.6,1.4,0.6,1.7s0,0.3,0.4,0.9
	c0.4,0.5,0.7,1.4,0.6,1.9s0.2,2.1,0.4,2.4c0.2,0.3,1,0.4,1.1,0.5s0.5,0.4,0.7,0.6c0.2,0.2,0.8-0.1,0.9-0.1s0.4,0.4,0.9,0.2
	s1.4,0.3,1.4-0.4s-1.7-2.2-1.7-2.4c0-0.3-0.7-1.2-1.2-1.6c-0.5-0.3-0.6-2.4-0.4-2.8c0.2-0.4-0.4-2.2-0.5-2.8c-0.2-0.5,0.3-1.4,0.5-2
	s-0.1-1.6,0.3-1.5c0.4,0.2,4.5,0.8,5,0.8s1.1,0.1,1.3,0.1c0.3,0,0.5,0.5,0.8,1.1s0.2,2.1,0.5,3.5c0.4,1.4,1,2.5,1.4,3.2
	s0.1,0.8,0.3,1.5c0.2,0.7,0.1,0.9,0.1,1.2s-0.1,0.9-0.2,1.1c-0.1,0.3-0.1,0.6-0.2,1.1s-0.9,0.8-0.9,0.8s0.7-0.1,0.7,0.1
	s-1,1.5-1,1.5h0.3c0,0,0.1,0.3,0,0.4c0.1-0.1,0.7-0.5,0.7-0.5s0,0.4-0.2,0.6c-0.2,0.2-0.4,0.9-0.2,1.4c0.2,0.5,1.7,1.4,2.7,1.6
	c1.1,0.2,0.8-0.2,0.8-0.2v-0.7c0,0,0.9,0.3,1.4,0.3s-0.2-0.7-0.2-0.7s-0.6-0.2-0.8-1.6c-0.3-0.5-0.4-1.1-0.4-1.8
	c0.1-1.1,0.2-2.6,0.3-3.9c-0.2-2.1-0.4-3.9-0.4-3.9c-0.5-0.8-0.1-2-0.7-3.1c-0.5-1.1-0.1-2.3-0.1-2.3l0.5-1h0.5c0,0,0.3,0.8,0.3,1
	c0,0.1,0,1.5-0.2,1.5s0.2,4.3,0.2,5.4c0,0.5,0,1.4-0.1,2.4c0.1,1.3,0.2,2.7,0.1,3.9c0,0.8,0,1.4,0,1.8c0.4,0.8,1,1.2,1,1.2
	c1,0.3,2.5,0,2.5,0l-0.1-0.4h0.7c0-0.7-1.8-2.2-1.8-2.2s-0.3-0.2-0.5-1.6c-0.2-1.4-0.3-0.8,0.2-2.1s0.8-3.6,0.8-4.6s0.8-2,1-2.6
	c0.2-0.7,0.4-2.4,0.5-2.8c0.1-0.3,0.3-1.5,0.7-2.1c0.3-0.7,0.7-3.1,0.7-4.1s0.5-1.3,0.7-2.3c0.1-1-0.7-4-1-4.4
	c-0.3-0.5-0.1-2.1-0.1-2.8c0-0.7,0.2-1.1,0.5-0.5c0.3,0.7,0.1,1.3,0.1,1.3s-0.1,0.1,0.2,0c0.3-0.1,0.3-1,0.2-1.6
	c-0.2-0.7-0.7-3.3-0.7-3.9c0-0.7,0.2,0.1,0.7-1.5s0.8-0.9,0.9-1.1s0.3-1,0.6-1.6c0.3-0.6,0.7-2,0.7-2.1c0-0.2,0.3-0.7,0.7-1.1
	c0.3-0.5,0.5-2.1,0.5-2.1s0.3-0.2,0.9,0c0.5,0.1,1.4-0.3,2.7-0.8c1.4-0.5,1.5-1.3,1.7-1.3C378,10.7,379.3,10,378.9,9.6"/>
<path class="st1" d="M356,63c-16.6,0-30,13.4-30,30s13.4,30,30,30s30-13.4,30-30S372.6,63,356,63z M365.4,106.8l-9.4-4.9l-9.4,4.9
	l1.8-10.5l-7.6-7.4l10.5-1.5l4.7-9.5l4.7,9.5l10.5,1.5l-7.6,7.4L365.4,106.8z"/>
<g>
	<path class="st1" d="M356,125c-16.6,0-30,13.4-30,30s13.4,30,30,30s30-13.4,30-30S372.6,125,356,125z M371.8,169.7l-5.8-2.3
		c-2.7,2.2-6.2,3.5-10,3.5c-8.8,0-16-7.1-16-16c0-8.8,7.1-16,16-16s16,7.1,15.9,15.9c0,2.2-0.4,4.3-1.3,6.2l2.6,7.1
		C373.8,169.5,373.1,170.2,371.8,169.7z"/>
	<path class="st1" d="M348.1,152.9c-1.1,0-2,0.9-2,2s0.9,2,2,2s2-0.9,2-2S349.2,152.9,348.1,152.9z"/>
	<path class="st1" d="M355.6,152.9c-1.1,0-2,0.9-2,2s0.9,2,2,2s2-0.9,2-2S356.7,152.9,355.6,152.9z"/>
	<path class="st1" d="M363.2,152.9c-1.1,0-2,0.9-2,2s0.9,2,2,2s2-0.9,2-2S364.3,152.9,363.2,152.9z"/>
</g>
<path class="st0" d="M163,17c0-5.5-4.5-10-10-10s-10,4.5-10,10s4.5,10,10,10S163,22.5,163,17z M148.6,15.4l0.6-0.7l3.8,4.2l3.8-4.2
	l0.6,0.7l-4.4,4.7L148.6,15.4z"/>
<path class="st4" d="M154,177c-8.3,0-15,6.7-15,15s6.7,15,15,15s15-6.7,15-15S162.3,177,154,177z M154,197.5c-3,0-5.5-2.5-5.5-5.5
	s2.5-5.5,5.5-5.5s5.5,2.5,5.5,5.5S157,197.5,154,197.5z"/>
<path class="st5" d="M186,177c8.3,0,15,6.7,15,15s-6.7,15-15,15s-15-6.7-15-15S177.7,177,186,177z"/>
<path d="M220,177c-8.3,0-15,6.7-15,15s6.7,15,15,15s15-6.7,15-15S228.3,177,220,177z M226.9,193.4h-5.6v5.5h-2.6v-5.5h-5.6v-2.7h5.6
	v-5.5h2.6v5.5h5.6V193.4z"/>
<path d="M252,177c-8.3,0-15,6.7-15,15s6.7,15,15,15c8.3,0,15-6.7,15-15S260.3,177,252,177z M253.3,190.6h5.6v2.7h-5.6l0,0h-2.6l0,0
	h-5.6v-2.7h5.6"/>
<path d="M184.6,20.3c0.6-0.9,1.3-1.8,1.9-2.6c2.1-2.9,4.2-5.8,6.4-8.7c0.4-0.6,1-0.7,1.6-0.3c0.5,0.3,1,0.6,1.5,0.9
	c0.6,0.4,0.7,0.9,0.3,1.5c-3.3,4.5-6.6,9-9.9,13.6c-0.7,0.9-1.6,1-2.5,0.3c-0.1-0.1-0.2-0.1-0.2-0.2c-1.9-1.7-3.7-3.5-5.6-5.2
	c-0.6-0.5-0.6-1.1,0-1.6c0.4-0.4,0.8-0.8,1.2-1.2c0.5-0.5,1.1-0.5,1.6,0c1.2,1.1,2.4,2.2,3.5,3.3C184.4,20.2,184.5,20.3,184.6,20.3z
	"/>
<path class="st1" d="M221,27c5.5,0,10-4.5,10-10s-4.5-10-10-10s-10,4.5-10,10S215.5,27,221,27z M222.6,12.6l0.7,0.6l-4.2,3.8
	l4.2,3.8l-0.7,0.6l-4.7-4.4L222.6,12.6z"/>
<g>
	<path d="M339.1,219.8c-2.3,0-4.2,1.8-4.2,4.1s1.8,4.2,4.1,4.2c2.3,0,4.2-1.8,4.2-4.2C343.2,221.7,341.3,219.8,339.1,219.8z"/>
	<path d="M339,209.1c-8.3,0-15,6.7-15,15s6.7,15,15,15s15-6.7,15-15S347.3,209.1,339,209.1z M347.1,231.1L347.1,231.1
		c-0.1,0.5-0.4,0.8-0.9,0.9c-0.5,0.1-0.8,0-1.2-0.3c-0.8-0.8-1.6-1.6-2.4-2.4c-0.1-0.1-0.2-0.1-0.3,0c-1.4,0.9-3,1.2-4.7,0.9
		c-3.8-0.8-6-4.9-4.5-8.5c0.9-2.1,2.4-3.4,4.7-3.8c0.2-0.1,0.5-0.1,0.7-0.1c0.3,0,0.6,0,0.9,0h0.1c0.3,0,0.5,0.1,0.8,0.1
		c3.8,0.8,6.1,5,4.4,8.7c-0.1,0.3-0.3,0.7-0.5,1l0.1,0.1c0.7,0.7,1.4,1.4,2.1,2.1c0.3,0.3,0.6,0.5,0.6,0.9
		C347.1,230.8,347.1,231,347.1,231.1z"/>
</g>
<path class="st1" d="M219.1,41c0.4,0,0.8,0,1.2,0c0.1,0,0.1,0,0.2,0c0.4,0.1,0.7,0.1,1.1,0.2c5.3,1.1,8.4,6.9,6.1,12.1
	c-0.2,0.5-0.5,0.9-0.7,1.4c0,0,0.1,0.1,0.1,0.2c1,1,2,2,3,3c0.4,0.4,0.8,0.8,0.9,1.3c0,0.2,0,0.3,0,0.5c0,0,0,0,0,0.1
	c-0.1,0.6-0.5,1.1-1.2,1.2c-0.6,0.2-1.2,0-1.6-0.5c-1.1-1.1-2.2-2.2-3.3-3.4c-0.1-0.1-0.2-0.1-0.4,0c-2,1.3-4.2,1.7-6.5,1.2
	c-5.3-1.1-8.4-6.8-6.3-11.8c1.2-2.9,3.4-4.7,6.5-5.3C218.4,41.1,218.8,41.1,219.1,41z M225.5,49.7c0-3.1-2.6-5.7-5.7-5.8
	c-3.2,0-5.8,2.5-5.8,5.7s2.5,5.8,5.8,5.9C222.9,55.5,225.5,53,225.5,49.7z"/>
<path class="st6" d="M252.1,35.1c0.6,0,1.3,0,1.9,0c0.1,0,0.2,0,0.3,0.1c0.6,0.1,1.1,0.1,1.7,0.3c8.6,1.8,13.5,11,9.8,19.3
	c-0.3,0.7-0.8,1.4-1.2,2.2c0.1,0.1,0.1,0.2,0.2,0.2c1.6,1.6,3.2,3.2,4.8,4.8c0.6,0.6,1.2,1.2,1.4,2.1c0,0.3,0,0.5,0,0.8
	c0,0,0,0.1-0.1,0.1c-0.2,1-0.9,1.7-1.9,2s-1.9,0-2.6-0.8c-1.8-1.8-3.6-3.6-5.4-5.4c-0.2-0.2-0.3-0.2-0.6,0c-3.2,2-6.7,2.7-10.4,1.9
	c-8.5-1.8-13.4-10.8-10.1-18.9c1.9-4.6,5.4-7.5,10.3-8.5C251,35.2,251.6,35.2,252.1,35.1z M262.3,49c0-5-4.1-9.2-9.2-9.2
	c-5.1,0-9.3,4-9.3,9.1c0,5.2,4,9.3,9.2,9.4C258.2,58.3,262.3,54.2,262.3,49z"/>
<path class="st1" d="M307,209.1c-8.3,0-15,6.7-15,15s6.7,15,15,15s15-6.7,15-15S315.3,209.1,307,209.1z M313.9,225.4h-5.6v5.5h-2.6
	v-5.5h-5.6v-2.7h5.6v-5.5h2.6v5.5h5.6V225.4z"/>
<path class="st1" d="M275,209c-8.3,0-15,6.7-15,15s6.7,15,15,15s15-6.7,15-15S283.3,209,275,209z M281.9,225.4h-5.6h-2.6h-5.6v-2.7
	h5.6h2.6h5.6V225.4z"/>
<g>
	<path class="st2" d="M50.1,307.5c-0.3-0.2-0.7-0.2-1.1-0.3c-0.1-0.2-0.1-0.4-0.2-0.6c-0.2,0.2-0.4,0.4-0.6,0.6
		c0.2,0.1,0.4,0.1,0.7,0.2c-0.1,0.2-0.2,0.3-0.4,0.5c-0.2-0.2-0.3-0.4-0.5-0.6c-0.8,0.2-0.8,0.6,0.1,2.4c0.2-0.2,0.4-0.5,0.6-0.6
		c0.3-0.2,0.7-0.2,1.1-0.4c0.3-0.1,0.5-0.3,0.8-0.5C50.5,307.9,50.3,307.6,50.1,307.5z"/>
	<path class="st2" d="M31,289.2c-16.6,0-30,13.4-30,30s13.4,30,30,30s30-13.4,30-30C61,302.7,47.6,289.2,31,289.2z M8,323
		c-0.5-0.7-0.8-1.5-0.9-2.4c0-0.1-0.1-0.2-0.2-0.3c-0.3-0.5-0.7-1-1-1.5c-0.2-0.3-0.3-0.6-0.6-0.8c-0.6-0.6-0.9-1.4-0.9-2.2
		c0-1.1,0.1-2.2,0.1-3.4l0,0c0.3-1,0.6-1.9,0.8-2.9c0.3-2.1,0.6-3,1.8-4.8c0.6-0.9,1.2-1.8,1.8-2.5c1-1.2,2.1-2.4,3.2-3.6
		c2.1-2.1,4.2-4.2,7-5.2c0.6-0.2,1.1-0.4,1.7-0.6c0,0.1,0,0.1,0.1,0.2c-0.9,0.6-1.7,1.1-2.6,1.7c0.2,0.1,0.4,0.2,0.6,0.3
		c-0.5,0.6-0.9,1.2-1.4,1.8c0,0.1,0,0.3,0,0.5c0.2-0.1,0.5-0.3,0.7-0.4l0.1,0.1c-0.1,0.2-0.2,0.4-0.3,0.7c0.2,0,0.4,0.1,0.6,0.1
		c-0.1,0.2-0.2,0.3-0.3,0.5c0.5-0.1,1.1-0.6,1.4-0.9c0.5-0.5,1.2-0.8,1.8-1.1c0,0,0.1,0.1,0.1,0.2c-0.7,0.6-1.5,1.1-2.2,1.7
		c0,0,0,0.1,0.1,0.1c0.2-0.1,0.3-0.1,0.5-0.2c0,0,0,0.1,0.1,0.1c-0.3,0.3-0.6,0.5-0.9,0.8c0.1,0.1,0.1,0.1,0.2,0.2
		c0.5-0.3,1-0.7,1.6-1.1c-0.5,1.5-1.8,1.8-2.7,1.4c0,0.4,0,0.7-0.5,0.4c-0.1-0.1-0.3,0-0.4,0c-1,0.3-1.7,0.9-2.2,1.8
		c-0.1,0.2-0.1,0.4-0.1,0.6c0.1,0.4,0.2,0.9,0.3,1.3c0.3,0.8,0.2,1.4-0.2,2.2c0.2-0.1,0.4-0.2,0.6-0.3c0.6-0.6,1.1-1.3,1.6-1.9
		c0.4-0.6,0.8-1.2,1.3-1.7c0.3-0.5,0.7-0.1,1.1-0.1c0,0.3,0,0.5,0,0.8c0,0.4-0.1,0.8-0.1,1.1c0.1,0,0.1,0,0.2,0
		c0.3-0.2,0.6-0.5,1-0.8c-0.1,0.7-0.3,1.2-0.3,1.7c-0.1,0.6,0.1,1.1,0.7,1.4c-0.3,0.1-0.6,0.2-1,0.4c0.5,0.1,0.9,0.2,1.4,0.3
		c-0.8,0.5-1.5,0.9-2.2,0.7c-1.2-0.2-2.1,0.2-3,0.9c0.8-0.1,1.2-0.9,2.2-0.8c-0.6,0.5-0.7,1.1-0.6,1.8c0.2,0.1,0.3,0.1,0.7,0.3
		c-0.5,0.3-0.9,0.5-1.3,0.7c-0.1,0-0.3-0.1-0.4-0.1c0.1-0.1,0.1-0.3,0.2-0.3c0.1-0.1,0.3-0.1,0.5-0.2c-0.6-0.3-1.8,0.2-2.2,0.9
		c-0.9,0-1.5,0.6-2.2,1.4c0-0.3-0.1-0.5-0.1-0.8c-0.1,0.5-0.3,0.8-0.3,1.2c0,0.4-0.3,0.6-0.6,0.8c-0.8,0.3-1.3,0.7-1.3,1.7
		c0,0.5-0.3,1-0.6,1.5c-0.2-0.8-0.4-1.5-0.6-2.2c-0.2-0.5-0.2-0.5-0.8-0.6c0,0.1-0.1,0.2-0.1,0.4c-0.4-0.3-0.7-0.6-1-0.7
		s-0.8,0.1-0.9,0.3c-0.3,1-0.6,2-0.8,3c-0.1,0.3,0.1,0.6,0.2,0.8c0.2,0.6,0.6,0.6,1,0.2c0.3-0.3,0.5-0.4,1-0.1
		c-0.2,0.4-0.3,0.8-0.5,1.2c-0.3,0.5-0.2,0.9,0.2,1.2c0.5,0.3,0.6,0.7,0.6,1.3c0,0.9,0.3,1.9,1,2.6C8.5,323.6,8.4,323.5,8,323z
		 M25.7,334c-1,0.6-1.4,1.2-1.4,2.5c0,1.2-0.7,1.8-1.9,2c-0.5,0.1-1,0.3-1.5,0.4c0.3,0.9,0.3,0.9-0.5,1.4l-0.1,0.1
		c-0.2,0.9-0.9,0.6-1.5,0.5c0,0-0.1,0-0.2,0c0.2,0.3,0.4,0.5,0.7,0.9c-0.5,0-0.9,0.1-1.4,0.1c0,0.1,0,0.2,0,0.4
		c-0.2,0-0.3,0-0.5-0.1c0.6,0.3,0.4,0.7,0.3,0.9c0.2,0.4,0.4,0.8,0.6,1.1c0.1,0.1,0.3,0.2,0.5,0.3c0.3,0.2,0.6,0.3,1,0.5
		c-0.3,0-0.4,0-0.5,0c-1.4-0.5-2.5-1.4-3.5-2.6c-1.4-1.7-1.8-3.8-2.8-5.7c-0.5-1-1.1-1.9-1.6-2.9c-0.8-1.6-1.7-3.1-2.4-4.7
		c-0.3-0.7-0.2-1.6-0.3-2.4c0-0.1,0-0.3,0.1-0.3c0.7-0.7,0.7-1.6,0.6-2.3c0.4-0.4,0.6-0.7,0.9-0.8c0.3-0.2,0.7-0.3,1.1-0.4
		c0,0.5,0,0.8,0,1.1c1.3-0.1,2.6,0,3.7,0.9c-0.1,0.2-0.2,0.3-0.3,0.4v0.1c1.1-0.1,1.2,1.7,2.5,1.4c0.7,0.4,1.4,0.8,1.6,1.6
		c0.1,0.2,0.1,0.4,0.2,0.6c0.2,0.6,0.2,0.6-0.4,0.7c0.3,0.6,0.8,0.9,1.2,0.6c0.3-0.2,0.5-0.2,0.8,0c1.2,0.6,2.5,1.2,3.7,1.9
		c0.4,0.2,0.9,0.5,1.2,0.9C26.1,333.3,26.2,333.7,25.7,334z M30.9,297.8c-0.2,0.1-0.5,0.3-0.8,0.6c0.2,0.2,0.4,0.5,0.6,0.8
		c-0.3,0.1-0.5,0.1-0.8,0.2c0.1,0.2,0.2,0.3,0.4,0.5c-0.1,0.1-0.2,0.2-0.4,0.3c-0.2,0.1-0.5,0.3-0.7,0.4c-1.4,0.5-2.7,1.2-3.4,2.6
		c-0.1,0.3-0.4,0.5-0.7,0.9c-0.4-0.5-0.8-1-1.2-1.5c-0.1-0.1-0.1-0.2-0.1-0.3c0.4-0.9,0.2-2,1.2-2.6c-0.2-0.2-0.3-0.3-0.4-0.4
		c0.3-0.1,0.6-0.3,1.1-0.5c-0.3-0.2-0.4-0.3-0.5-0.4c0.2-0.7,1.3-1.6-0.5-2.1c0.5-0.3,0.8-0.6,1.2-0.9c0.2-0.1,0.4-0.1,0.6-0.2
		c0.1-0.1,0.2-0.3,0.3-0.4c0-0.1-0.1-0.1-0.1-0.2c0.6,0,1.2,0,1.8-0.1c0.3,0,0.6-0.2,0.9-0.3c0.2-0.1,0.4-0.1,0.7-0.3
		c0,0.3,0,0.5,0,0.8c0.1,0,0.3,0.1,0.6,0.2C30.9,295.9,30.9,296.8,30.9,297.8z M55.8,313.2c0.1-0.2,0.2-0.3,0.2-0.5
		c0.1-0.2,0.1-0.3,0.1-0.5c1.1,0.5,1.2,1.4,1.1,2.4c-0.2,1.2-0.6,2.3-1.3,3.3c-0.2,0.2-0.4,0.4-0.5,0.6c-1.1-1.6-2-3.3-3.8-4.4
		c0,0.2,0,0.5,0.2,0.6c0.3,0.4,0.8,0.8,1.1,1.2c0.2,0.2,0.3,0.5,0.5,0.8c0.2,0.4,0.6,0.7,0.7,1.1c0.3,0.9,1.6,1,1.7,2.1
		c0.1,0,0.1,0,0.2,0c0.3-0.4,0.5-0.8,0.8-1.1c-0.3,1.4-0.6,2.8-0.9,4.1c-0.3,1.9-0.6,3.8-0.9,5.6c0,0.1,0,0.1,0,0.2
		c0.3,1.2-0.4,2.1-1,3c-0.5,0.8-0.9,1.6-1.3,2.4c-1.3,2.6-3.1,4.6-6,5.3c0.3-0.6,0-1.1-0.1-1.7c-0.3-1.1-0.3-2.2-0.4-3.3
		c0-0.3,0.2-0.7,0.3-1c0.8-1.5,0.6-2.7-0.7-3.8c-0.6-0.5-0.9-1.1-0.5-1.8c0.1-0.1,0.1-0.3,0.1-0.4c0.1-0.7-0.1-0.8-0.8-0.7
		c-0.4,0.1-0.8,0.4-1.1-0.3c-0.1-0.1-0.8-0.1-1.2,0c-1,0.3-2.1,0.7-3.1,1c-0.3,0.1-0.7,0.2-1,0.3c-0.5,0.2-0.9,0.2-1.3-0.2
		c-0.9-0.8-1.9-1.5-2.8-2.3c-0.4-0.3-0.6-0.7-1-1.1c0.6-0.4,0.6-0.8,0.5-1.3c0-0.1,0-0.2-0.1-0.3c-0.6-1.5,0.1-2.6,1-3.7
		c0.3-0.3,0.5-0.7,0.8-1s0.6-0.5,0.5-1.1c-0.1-0.3,0.5-0.7,0.7-1.1c0.1-0.1,0.3-0.2,0.3-0.4c0-0.6,0.3-0.6,0.8-0.6s0.9-0.3,1.4-0.4
		c1.3-0.4,2.7-0.9,4.1-1.3c0.1,0.5,0.2,0.9,0.3,1.4c0.8,0.2,1.8,0.4,2.7,0.6c0.2,0,0.5-0.1,0.8-0.1c-0.1-0.2-0.1-0.4-0.2-0.8
		c0.5-0.1,0.9-0.2,1.4-0.2c0.9,0.1,1.7-0.4,2.4-0.8c0.1-0.1,0.2-0.4,0.2-0.6c0.1-0.8-0.1-1.3-0.5-1.9c-0.3,0.2-0.6,0.4-0.8,0.6
		c-0.4,0.4-0.8,0.4-1.2,0.2c-0.2-0.1-0.3-0.3-0.4-0.5c-0.3-0.4-0.5-0.8-1.1-0.7c0,0.2,0,0.5,0,0.7c0,0.1,0.1,0.2,0.2,0.3
		c0.1,0.1,0.3,0.3,0.2,0.5c0,0.2-0.2,0.3-0.4,0.5c-0.1-0.1-0.2-0.2-0.3-0.4c-1-1.3-2.3-2.1-3.9-2.4c0,0.1-0.1,0.1-0.1,0.2
		c0.4,0.3,0.8,0.7,1.2,0.9c0.4,0.2,1,0.4,1.6,0.6c-0.2,0.2-0.3,0.2-0.4,0.3c0,0.3,0.4,0.6,0.1,0.9c-0.9-0.7-1.8-1.3-2.6-1.9
		c-0.3-0.2-0.6-0.3-1,0.1c-0.2,0.3-0.8,0.3-1,0.4c-0.3,0.3-0.5,0.6-0.6,0.8c-0.2,0.4-0.4,0.7-0.5,1.1c-0.3,1.2-0.8,1.5-2,1.4
		c-0.4,0-0.8,0-1.4,0c-0.1-0.8-0.2-1.7-0.3-2.5c0.6-0.4,1.3-0.4,2-0.4c0.3,0,0.7-0.1,0.7-0.3c0.1-0.2-0.1-0.6-0.3-0.8
		c-0.3-0.3-0.7-0.5-1.1-0.8c-0.1-0.1-0.2-0.2-0.3-0.2c0.1-0.1,0.2-0.2,0.3-0.3c0.2-0.1,0.4-0.3,0.5-0.5c0.3-0.2,0.9-0.1,0.9-0.8
		c0,0,0.1-0.1,0.2-0.2c0.3-0.1,0.4-0.2,0.5-0.5c0-0.2,0.3-0.4,0.5-0.5c0.5-0.2,0.6-0.4,0.3-0.8c-0.1-0.1-0.2-0.3-0.3-0.4
		c-0.3-0.4,0-0.7,0-1.1c0.1,0,0.2,0,0.2,0c0.1,0.4,0.2,0.8,0.4,1.2c0.1,0.3,0.3,0.7,0.8,0.4c0.5-0.3,1.1-0.5,1.7-0.7
		c-0.1-0.4-0.2-0.9-0.3-1.4c0.1,0,0.2,0,0.5,0c-0.2-0.4-0.4-0.7-0.6-1c0.3-0.2,0.5-0.5,0.8-0.7c-0.4-0.2-0.7-0.3-0.9,0.2
		c-0.1,0.3-0.8,0.2-1.1-0.2c-0.2-0.4-0.4-0.8-0.5-1.3c-0.1-0.4-0.3-0.5-0.7-0.5c0.1,0.6,0.1,1.2,0.3,1.8c0.1,0.3,0.4,0.5,0.7,0.7
		c0.3,0.3,0.6,0.6,0,0.9c0.5,0.5,0.7,1,0,1.6c-0.4-0.4-0.8-0.9-1.3-1.4c-0.2,0.3-0.4,0.5-0.5,0.7c-0.8-0.3-1.1-1-1.4-1.7
		c0.5-0.6,0.8-1.3,0.8-2c0-0.4-0.2-0.9-0.3-1.3c-0.2-0.6-0.1-0.9,0.4-1.2c0.1-0.1,0.1-0.3,0.2-0.5c0.1,0,0.3,0,0.4,0
		c0.9,0.3,1.8,0.5,2.6,0.8c0.2,0,0.3,0.2,0.4,0.4c-0.2,0.1-0.3,0.2-0.5,0.2s-0.3,0-0.5,0c0,0,0,0.1-0.1,0.1c0.6,0.3,1.2,0.5,1.8,0.8
		c0-0.1,0.1-0.1,0.1-0.2c-0.3-0.9-0.7-1.6-1.6-2.1c0.1-0.1,0.1-0.1,0.2-0.2c0.4,0.2,0.7,0.5,1.2,0.8c-0.1-0.3-0.2-0.5-0.2-0.7
		s0-0.4,0-0.5c-0.1-0.3-0.3-0.5-0.5-0.8c0.2-0.1,0.4-0.2,0.7-0.3c-0.7-0.4-1.5-0.8-2.2-1.2c0-0.1,0-0.1,0.1-0.2c0.3,0,0.5,0,0.8,0.1
		c-1.3-1.2-3-1.5-4.5-2.2c0-0.1,0-0.1,0-0.2c0.4-0.1,0.8-0.1,1.2-0.2c-0.1-0.1-0.3-0.2-0.4-0.4c5.6,1.3,10.2,4.1,14.1,8.3
		c3.7,4,6.3,8.7,7.3,14.1c-0.5-1.1-0.7-2.4-1.9-3.2c-0.4,0.2-0.5,1.1-1.3,0.8c-0.1,0.2-0.3,0.4-0.4,0.6c-0.4-0.4-0.7-0.7-1.2-1.1
		C54.4,312.1,54.6,312.4,55.8,313.2z"/>
</g>
<g>
	<path class="st2" d="M93,289.3c-16.6,0-30,13.4-30,30s13.4,30,30,30s30-13.4,30-30C123,302.7,109.6,289.3,93,289.3z M104.2,308.7
		c-0.1,0-0.2,0.4-0.9,0.7c-0.7,0.2-1.1,0.5-1.4,0.4s-0.4,0-0.4,0s-0.1,0.9-0.3,1.1c-0.2,0.2-0.3,0.5-0.3,0.6s-0.2,0.8-0.4,1.1
		c-0.2,0.3-0.2,0.8-0.3,0.8c-0.1,0.1-0.2-0.3-0.5,0.6c-0.3,0.8-0.4,0.4-0.4,0.8c0,0.3,0.3,1.7,0.4,2s0.1,0.8-0.1,0.8
		c-0.2,0.1-0.1,0-0.1,0s0.1-0.3-0.1-0.7c-0.2-0.3-0.3-0.1-0.3,0.2c0,0.3-0.1,1.2,0.1,1.5c0.2,0.2,0.6,1.8,0.5,2.3s-0.3,0.7-0.3,1.2
		s-0.2,1.8-0.3,2.1c-0.2,0.3-0.3,0.9-0.4,1.1s-0.2,1.1-0.3,1.4c-0.1,0.3-0.5,0.8-0.5,1.4c0,0.5-0.1,1.7-0.4,2.4
		c-0.3,0.7-0.2,0.4-0.1,1.1s0.3,0.8,0.3,0.8s0.9,0.8,0.9,1.2h-0.3l0.1,0.2c0,0-0.8,0.2-1.3,0c0,0-0.3-0.2-0.5-0.6
		C96.7,334,97,334,97,334s0.3,0.3,0.1,0.3c-0.3,0-0.7-0.2-0.7-0.2v0.3c0,0,0.1,0.2-0.4,0.1c-0.6-0.1-1.3-0.6-1.4-0.8
		c-0.1-0.3,0-0.6,0.1-0.7s0.1-0.3,0.1-0.3l-0.3,0.2v-0.2h-0.1c0,0,0.5-0.7,0.5-0.8s-0.4,0-0.4,0s0.4-0.1,0.4-0.4
		c0.1-0.3,0-0.5,0.1-0.6s0.1-0.4,0.1-0.6s0.1-0.3,0-0.6c-0.1-0.4,0.1-0.4-0.1-0.8s-0.5-0.9-0.7-1.6s-0.1-1.5-0.3-1.8
		c-0.1-0.3-0.3-0.6-0.4-0.6s-0.4,0-0.7,0c-0.2,0-2.4-0.3-2.6-0.4s0,0.4-0.1,0.8c-0.1,0.3-0.3,0.8-0.2,1c0.1,0.3,0.4,1.2,0.3,1.4
		c-0.1,0.2,0,1.3,0.2,1.5s0.6,0.7,0.6,0.8s0.9,0.9,0.9,1.3s-0.5,0.1-0.7,0.2s-0.4-0.1-0.5-0.1c0,0-0.4,0.1-0.5,0s-0.3-0.3-0.3-0.3
		c-0.1-0.1-0.5-0.1-0.6-0.3c-0.1-0.1-0.2-1-0.2-1.3s-0.1-0.7-0.3-1c-0.2-0.3-0.2-0.3-0.2-0.4s-0.2-0.3-0.3-0.9c-0.1-0.5,0-0.9,0-1.2
		c0-0.3-0.7-0.5,0.2-1.9c0,0-0.1-0.6-0.2-0.7s-0.3-0.2-0.4-0.4c-0.1-0.2-0.3-0.2-0.3-0.2s-0.3,1.5-0.6,2.5c-0.4,1-0.8,2.5-0.8,2.5
		s-0.2,0.1-0.1,0.5c0,0.4,0,1,0,1.3s-0.1,0.8,0,1.2c0.1,0.4,0.3,1,0.5,1s0.7,1,0.7,1.3s-0.1,0.1-0.2,0.1s-0.6,0.2-0.8,0.1
		c-0.2,0-1.7-0.5-1.7-0.9s0.1-0.8,0.3-1.4c0.2-0.5-0.1-1.7-0.1-1.9c0-0.1-0.1-0.9-0.1-1.1s-0.1-0.3-0.2-0.4s-0.3-0.6-0.2-0.7
		c0.1-0.1,0.7-1.2,0.8-1.7c0.1-0.5-0.1-1.7-0.4-2.1c-0.3-0.5-0.8-1.5-0.8-2.1s-0.1-1.9-0.2-2c-0.5,1.1-2.2,0.9-1.7,0.8
		c0.6-0.2,0.6-0.7,0.6-0.6c-0.3,0.3-1.2,0.1-1.3,0c0-0.1,1.9-0.3,1.8-2.4c0-0.6-0.2-1.4,0.1-2c0.2-0.4,0.4-0.8,0.9-1.2
		c0.1-0.2,0.2-0.3,0.4-0.4c1.2-0.8,1.6-0.9,2.2-1c0.1,0,0.2,0,0.3-0.1l0,0l0,0c1.1-0.2,1.9-0.1,3.2,0.1c0.3,0.1,1.5,0.4,1.9,0.6
		s1.6,0.4,1.9,0.5s1.1,0.2,1.1,0.2s0.2-0.3,0.4-0.5c0.2-0.2,0.2-0.3,0.5-0.5c0.2-0.2,0.4-0.2,0.4-0.4c0-0.2-0.2-1-0.2-1.2
		c-0.1-0.2,0-0.4-0.1-0.6s-0.2-0.2-0.2-0.4c-0.1-0.1-0.9,0.2-1.2-0.3c-0.2-0.5-0.7-0.3-0.9-0.9c-0.2-0.6-0.7-0.5-0.7-1.1
		c-0.1-0.5-0.4-0.5,0.1-0.8c0.5-0.2,1.1,0.2,1.2,0.3c0.1,0.1,0.6,0.2,0.9,0.3c0.3,0.1,0.5,0.5,0.9,0.2s0.2-0.5,0.2-0.5
		s-0.2-0.4-0.3-1.2c-0.2-0.8-0.3-2.4-0.3-2.5c0.1-0.1,0.3,0.2,0.8,1c0.4,0.8,1,2.2,1.2,2.3c0.2,0.1,0.6,0.4,0.7,0.4s0.8-0.3,0.9-0.3
		s1.1-2.4,1.6-2.9c0.4-0.4,0.6-0.8,0.8-0.7c0.1,0.1,0,0.7-0.1,1s-0.6,1.5-0.6,2.1c0,0.7,0.2,1.2,0.3,1.1c0.2-0.1,0.8-0.5,1.3-0.3
		s1.2,0.3,1.3,0.3c0.1,0,0.8-0.1,1,0.2C105,308.4,104.3,308.7,104.2,308.7z"/>
</g>
<g>
	<path class="st2" d="M155,289.3c-16.6,0-30,13.4-30,30s13.4,30,30,30s30-13.4,30-30C185,302.7,171.6,289.3,155,289.3z M141.5,313.7
		c-2.7,0-4.9-2.2-4.9-4.9c0-2.7,2.2-4.9,4.9-4.9s4.9,2.2,4.9,4.9S144.2,313.7,141.5,313.7z M155,339.8c-2.7,0-4.9-2.2-4.9-4.9
		c0-2.7,2.2-4.9,4.9-4.9s4.9,2.2,4.9,4.9C159.9,337.6,157.7,339.8,155,339.8z M155,324.1c-2.7,0-4.9-2.2-4.9-4.9
		c0-2.7,2.2-4.9,4.9-4.9s4.9,2.2,4.9,4.9S157.7,324.1,155,324.1z M168.3,313.7c-2.7,0-4.9-2.2-4.9-4.9c0-2.7,2.2-4.9,4.9-4.9
		s4.9,2.2,4.9,4.9S171,313.7,168.3,313.7z"/>
</g>
<g>
	<path class="st2" d="M217.7,326.4h6.5V320h-6.5V326.4z"/>
	<path class="st2" d="M209.8,318.5h6.5V312h-6.5V318.5z"/>
	<path class="st2" d="M217.7,318.5h6.5V312h-6.5V318.5z"/>
	<path class="st2" d="M209.8,326.4h6.5V320h-6.5V326.4z"/>
	<path class="st2" d="M217,289.3c-16.6,0-30,13.4-30,30s13.4,30,30,30s30-13.4,30-30C247,302.7,233.6,289.3,217,289.3z M233.5,318.5
		c0.4,0,0.7,0.3,0.7,0.7s-0.3,0.7-0.7,0.7h-7.9v6.5h7.9c0.4,0,0.7,0.3,0.7,0.7s-0.3,0.7-0.7,0.7h-7.9v7.9c0,0.4-0.3,0.7-0.7,0.7
		s-0.7-0.3-0.7-0.7v-7.9h-6.5v7.9c0,0.4-0.3,0.7-0.7,0.7s-0.7-0.3-0.7-0.7v-7.9h-6.5v7.9c0,0.4-0.3,0.7-0.7,0.7s-0.7-0.3-0.7-0.7
		v-7.9h-7.9c-0.4,0-0.7-0.3-0.7-0.7s0.3-0.7,0.7-0.7h7.9V320h-7.9c-0.4,0-0.7-0.3-0.7-0.7s0.3-0.7,0.7-0.7h7.9v-6.5h-7.9
		c-0.4,0-0.7-0.3-0.7-0.7s0.3-0.7,0.7-0.7h7.9v-7.9c0-0.4,0.3-0.7,0.7-0.7s0.7,0.3,0.7,0.7v7.9h6.5v-7.9c0-0.4,0.3-0.7,0.7-0.7
		s0.7,0.3,0.7,0.7v7.9h6.5v-7.9c0-0.4,0.3-0.7,0.7-0.7s0.7,0.3,0.7,0.7v7.9h7.9c0.4,0,0.7,0.3,0.7,0.7s-0.3,0.7-0.7,0.7h-7.9v6.5
		L233.5,318.5L233.5,318.5z"/>
</g>
<g>
	<path class="st0" d="M304.2,41c-5.5,0-10,4.5-10,10s4.5,10,10,10s10-4.5,10-10S309.7,41,304.2,41z M308.7,54.5l-1,1l-3.5-3.5
		l-3.5,3.5l-1-1l3.5-3.5l-3.5-3.5l1-1l3.5,3.5l3.5-3.5l1,1l-3.5,3.5L308.7,54.5z"/>
</g>
<g>
	<path class="st3" d="M279,289.3c-16.6,0-30,13.4-30,30s13.4,30,30,30s30-13.4,30-30C309,302.7,295.6,289.3,279,289.3z M292.8,321.9
		h-11.1V333h-5.2v-11.1h-11.1v-5.5h11.1v-11h5.2v11h11.1V321.9z"/>
</g>
<path d="M341,290.2c-16,0-29,13-29,29s13,29,29,29s29-13,29-29S357,290.2,341,290.2z M337.9,303.4h6.1v5.6l-1.3,15.8h-3.5l-1.3-15.8
	L337.9,303.4L337.9,303.4z M343.3,334c-0.6,0.6-1.4,1-2.3,1s-1.7-0.3-2.3-1c-0.6-0.6-1-1.4-1-2.3s0.3-1.7,1-2.3c0.6-0.6,1.4-1,2.3-1
	s1.7,0.3,2.3,1c0.6,0.6,1,1.4,1,2.3S343.9,333.4,343.3,334z"/>
<path class="st2" d="M284,177c-8.3,0-15,6.7-15,15s6.7,15,15,15s15-6.7,15-15S292.3,177,284,177z M290.8,197.3l-1.5,1.5l-5.3-5.3
	l-5.3,5.3l-1.5-1.5l5.3-5.3l-5.3-5.3l1.5-1.5l5.3,5.3l5.3-5.3l1.5,1.5l-5.3,5.3L290.8,197.3z"/>
<path class="st1" d="M151.5,209c-13.8,0-25,11.2-25,25s11.2,25,25,25s25-11.2,25-25S165.3,209,151.5,209z M148.8,220.4h5.3v4.9
	l-1.1,13.6h-3l-1.1-13.6L148.8,220.4L148.8,220.4z M153.5,246.8c-0.6,0.6-1.2,0.8-2,0.8s-1.4-0.3-2-0.8c-0.6-0.6-0.8-1.2-0.8-2
	s0.3-1.4,0.8-2c0.6-0.6,1.2-0.8,2-0.8s1.4,0.3,2,0.8c0.6,0.6,0.8,1.2,0.8,2S154,246.3,153.5,246.8z"/>
<path d="M203.5,209c-13.8,0-25,11.2-25,25s11.2,25,25,25s25-11.2,25-25S217.3,209,203.5,209z M200.8,220.4h5.3v4.9l-1.1,13.6h-3
	l-1.1-13.6L200.8,220.4L200.8,220.4z M205.5,246.8c-0.6,0.6-1.2,0.8-2,0.8s-1.4-0.3-2-0.8c-0.6-0.6-0.8-1.2-0.8-2s0.3-1.4,0.8-2
	c0.6-0.6,1.2-0.8,2-0.8s1.4,0.3,2,0.8c0.6,0.6,0.8,1.2,0.8,2S206,246.3,205.5,246.8z"/>
<g>
	<path d="M104.2,251.7c-8.6,0-15.5,6.9-15.5,15.5s6.9,15.5,15.5,15.5s15.5-6.9,15.5-15.5S112.8,251.7,104.2,251.7z M102.5,258.8h3.3
		v3l-0.7,8.4h-1.9l-0.7-8.4L102.5,258.8L102.5,258.8z M105.4,275.2c-0.3,0.3-0.8,0.5-1.2,0.5s-0.9-0.2-1.2-0.5
		c-0.3-0.3-0.5-0.8-0.5-1.2s0.2-0.9,0.5-1.2c0.3-0.3,0.8-0.5,1.2-0.5s0.9,0.2,1.2,0.5c0.3,0.3,0.5,0.8,0.5,1.2
		C105.9,274.4,105.8,274.8,105.4,275.2z"/>
</g>
<g id="black">
	<path class="st0" d="M370,242.1c-8.3,0-14.9,6.7-14.9,14.9c0,8.2,6.7,15,14.9,15s14.9-6.7,14.9-14.9S378.3,242.1,370,242.1z
		 M371.4,261.6c-1.1,0-2.1-0.6-2.5-1.3c0,0-0.6,2.4-0.7,2.9c-0.2,0.8-0.6,1.6-1,2.2c-0.5,0.7-1.2,0.2-1.2-0.5s0-1.6,0.2-2.3
		c0.2-0.8,1.3-5.7,1.3-5.7s-0.3-0.7-0.3-1.7c0-1.5,0.9-2.7,2-2.7c0.9,0,1.4,0.7,1.4,1.6c0,1-0.6,2.4-0.9,3.7c-0.3,1.1,0.5,2,1.6,2
		c1.9,0,3.2-2.5,3.2-5.6c0-2.3-1.5-4-4.3-4c-3.1,0-5,2.4-5,5c0,0.9,0.3,1.6,0.7,2c0.2,0.2,0.2,0.3,0.1,0.6c0,0.2-0.2,0.7-0.2,0.8
		c-0.1,0.3-0.3,0.4-0.5,0.3c-1.4-0.6-2.1-2.2-2.1-4c0-3,2.5-6.5,7.3-6.5c3.9,0,6.5,2.9,6.5,6C376.9,258.5,374.7,261.6,371.4,261.6z"
		/>
</g>
<path class="st1" d="M336,242.1c-8.3,0-14.9,6.7-14.9,14.9c0,8.2,6.7,15,14.9,15s14.9-6.7,14.9-14.9S344.3,242.1,336,242.1z
	 M337.4,261.6c-1.1,0-2.1-0.6-2.5-1.3c0,0-0.6,2.4-0.7,2.9c-0.2,0.8-0.6,1.6-1,2.2c-0.5,0.7-1.2,0.2-1.2-0.5s0-1.6,0.2-2.3
	c0.2-0.8,1.3-5.7,1.3-5.7s-0.3-0.7-0.3-1.7c0-1.5,0.9-2.7,2-2.7c0.9,0,1.4,0.7,1.4,1.6c0,1-0.6,2.4-0.9,3.7c-0.3,1.1,0.5,2,1.6,2
	c1.9,0,3.2-2.5,3.2-5.6c0-2.3-1.5-4-4.3-4c-3.1,0-5,2.4-5,5c0,0.9,0.3,1.6,0.7,2c0.2,0.2,0.2,0.3,0.1,0.6c0,0.2-0.2,0.7-0.2,0.8
	c-0.1,0.3-0.3,0.4-0.5,0.3c-1.4-0.6-2.1-2.2-2.1-4c0-3,2.5-6.5,7.3-6.5c3.9,0,6.5,2.9,6.5,6C342.9,258.5,340.7,261.6,337.4,261.6z"
	/>
<path class="st7" d="M26.5,408.7c14.1,0,25.5-11.4,25.5-25.5s-11.4-25.5-25.5-25.5S1,369.2,1,383.2C1,397.3,12.4,408.7,26.5,408.7z
	 M30.6,371.9l1.9,1.6l-10.6,9.7l10.6,9.7l-1.9,1.6l-12.1-11.3L30.6,371.9z"/>
<path class="st7" d="M105.5,383.2c0-14.1-11.4-25.5-25.5-25.5s-25.5,11.4-25.5,25.5s11.4,25.5,25.5,25.5S105.5,397.3,105.5,383.2z
	 M88,383.2l-12.1,11.3l-1.9-1.6l10.6-9.7L74,373.5l1.9-1.6L88,383.2z"/>
<g>
	<g>
		<path d="M145.6,367.2c-0.3-0.4-1.3-0.2-1.4-0.2c-0.1,0-1.1-0.1-1.9-0.4c-0.8-0.4-1.7,0.2-2,0.4c-0.3,0.1-0.5-0.6-0.5-1.6
			s0.8-2.7,0.9-3.1c0.1-0.4,0.4-1.3,0.1-1.5c-0.2-0.1-0.6,0.4-1.2,1c-0.6,0.6-2.2,4.2-2.3,4.2s-1.2,0.5-1.3,0.5s-0.7-0.4-1-0.5
			c-0.4-0.1-1.2-2.1-1.8-3.3c-0.6-1.2-1-1.6-1.2-1.5c-0.1,0.1,0.1,2.5,0.4,3.6c0.3,1.1,0.5,1.7,0.5,1.7s0.4,0.3-0.2,0.7
			c-0.6,0.4-1-0.2-1.4-0.3c-0.4-0.1-1.1-0.3-1.3-0.4s-1.2-0.8-1.8-0.5c-0.7,0.3-0.2,0.3-0.1,1.1c0.1,0.8,0.8,0.6,1,1.5
			c0.3,0.9,1,0.7,1.3,1.4c0.3,0.7,1.6,0.2,1.7,0.4c0.1,0.2,0.1,0.3,0.3,0.5c0.2,0.3,0.1,0.6,0.2,0.9c0.1,0.3,0.3,1.4,0.3,1.7
			c0,0.3-0.2,0.2-0.5,0.5s-0.4,0.4-0.7,0.7c-0.3,0.3-0.5,0.7-0.5,0.7s-1.2-0.1-1.6-0.3c-0.5-0.2-2.2-0.5-2.8-0.8
			c-0.6-0.3-2.4-0.8-2.9-0.9c-1.9-0.4-3.1-0.5-4.7-0.2l0,0l0,0c-0.2,0-0.3,0-0.5,0.1c-0.9,0.1-1.4,0.3-3.2,1.5
			c-0.2,0.2-0.4,0.4-0.6,0.6c-0.6,0.5-1,1.1-1.3,1.7c-0.3,0.8-0.1,2-0.1,2.9c0,3.1-2.8,3.4-2.7,3.5c0.1,0.1,1.4,0.3,1.9-0.1
			c0.1,0,0,0.7-0.8,0.9c-0.7,0.2,1.8,0.6,2.6-1.1c0.1,0.1,0.2,2,0.3,2.9c0.1,0.9,0.8,2.5,1.2,3.1c0.4,0.6,0.7,2.3,0.6,3.1
			c-0.1,0.8-1,2.3-1.1,2.4s0.1,0.8,0.3,1c0.1,0.2,0.3,0.3,0.3,0.6c0,0.3,0.2,1.4,0.2,1.6s0.4,1.9,0.1,2.7c-0.3,0.8-0.4,1.4-0.4,2
			s2.1,1.2,2.5,1.3c0.3,0.1,1.1-0.1,1.2-0.2s0.3,0.3,0.3-0.2s-0.8-1.9-1-1.9c-0.3-0.1-0.6-0.9-0.7-1.4s0-1.2,0-1.7s0.1-1.4,0-1.9
			c-0.1-0.6,0.1-0.8,0.2-0.8s0.7-2.1,1.2-3.6c0.5-1.4,0.9-3.6,0.9-3.6s0.3-0.1,0.4,0.3c0.1,0.3,0.3,0.4,0.6,0.7c0.2,0.2,0.3,1,0.3,1
			c-1.3,2.1-0.3,2.3-0.3,2.7c-0.1,0.4-0.2,0.9,0,1.7c0.2,0.8,0.5,1,0.5,1.2s0,0.3,0.3,0.6c0.3,0.4,0.5,1,0.5,1.4
			c-0.1,0.4,0.1,1.6,0.3,1.8c0.1,0.2,0.7,0.3,0.9,0.4c0.1,0.1,0.4,0.3,0.5,0.4s0.6-0.1,0.7-0.1s0.3,0.3,0.7,0.1
			c0.3-0.2,1.1,0.2,1.1-0.3s-1.3-1.6-1.3-1.8c0-0.2-0.5-0.9-0.9-1.2c-0.3-0.3-0.5-1.8-0.3-2.1c0.1-0.3-0.3-1.7-0.4-2.1
			s0.2-1,0.3-1.5c0.1-0.5-0.1-1.2,0.2-1.1c0.3,0.1,3.4,0.6,3.8,0.6c0.4,0,0.8,0.1,1,0.1s0.4,0.4,0.6,0.9c0.2,0.5,0.1,1.6,0.4,2.6
			c0.3,1,0.8,1.9,1.1,2.4s0.1,0.6,0.2,1.1c0.1,0.5,0.1,0.6,0.1,0.9s-0.1,0.7-0.1,0.8c-0.1,0.2,0,0.5-0.1,0.9s-0.7,0.6-0.7,0.6
			s0.5-0.1,0.5,0.1s-0.7,1.1-0.7,1.1h0.2c0,0,0,0.2,0,0.3c0.1-0.1,0.5-0.3,0.5-0.3s0,0.3-0.1,0.4c-0.1,0.2-0.3,0.7-0.2,1.1
			s1.3,1.1,2.1,1.2s0.6-0.1,0.6-0.1v-0.5c0,0,0.7,0.2,1,0.2c0.4,0-0.2-0.5-0.2-0.5s-0.4-0.1-0.6-1.2c-0.2-0.4-0.3-0.8-0.3-1.4
			c0.1-0.8,0.1-2,0.2-3c-0.1-1.6-0.3-2.9-0.3-2.9c-0.4-0.6-0.1-1.5-0.5-2.3s-0.1-1.7-0.1-1.7l0.4-0.7h0.4c0,0,0.3,0.6,0.3,0.7
			s0,1.1-0.2,1.1c-0.1,0,0.2,3.2,0.2,4c0,0.4,0,1-0.1,1.8c0.1,1,0.1,2,0.1,3c0,0.6,0,1,0,1.4c0.3,0.6,0.7,0.9,0.7,0.9
			c0.8,0.2,1.9,0,1.9,0l-0.1-0.3h0.5c0-0.5-1.4-1.7-1.4-1.7s-0.3-0.1-0.4-1.2c-0.1-1.1-0.3-0.6,0.1-1.6c0.4-1,0.6-2.7,0.6-3.5
			c0-0.7,0.6-1.5,0.8-2c0.1-0.5,0.3-1.8,0.4-2.1c0.1-0.2,0.3-1.1,0.5-1.6c0.3-0.5,0.5-2.3,0.5-3s0.4-1,0.5-1.7s-0.5-3-0.8-3.3
			s-0.1-1.6-0.1-2.1s0.2-0.8,0.4-0.3c0.3,0.5,0.1,1,0.1,1s-0.1,0.1,0.1,0c0.3-0.1,0.2-0.7,0.1-1.2c-0.1-0.5-0.5-2.5-0.5-2.9
			c0-0.5,0.2,0.1,0.5-1.1c0.4-1.2,0.6-0.7,0.7-0.8c0.1-0.1,0.2-0.7,0.5-1.2s0.5-1.5,0.5-1.6s0.3-0.5,0.5-0.8
			c0.3-0.4,0.4-1.6,0.4-1.6s0.3-0.1,0.7,0s1-0.2,2.1-0.6c1-0.3,1.2-1,1.3-1C144.9,368,145.9,367.5,145.6,367.2"/>
	</g>
	<g>
		<path d="M130.3,403.4C130.3,403.4,130.3,403.3,130.3,403.4C130.3,403.3,130.3,403.4,130.3,403.4"/>
	</g>
</g>
<path class="st1" d="M300.3,267l-3.6-3.6l6.4-6.4l-6.4-6.4l3.6-3.6l6.4,6.4l6.4-6.4l3.6,3.6l-6.4,6.4l6.4,6.4l-3.6,3.6l-6.4-6.4
	L300.3,267z"/>
<path class="st7" d="M176.9,357.7c-14.1,0-25.5,11.4-25.5,25.5s11.4,25.5,25.5,25.5s25.5-11.4,25.5-25.5
	C202.4,369.2,191,357.7,176.9,357.7z M188.5,392.2l-2.6,2.6l-8.9-8.9l-8.9,8.9l-2.6-2.6l8.9-8.9l-8.9-8.9l2.6-2.6l8.9,8.9l8.9-8.9
	l2.6,2.6l-8.9,8.9L188.5,392.2z"/>
<g>
	<path class="st1" d="M275.2,244.3c-7.1,0-13,5.9-13,13c0,7.2,5.9,13,13,13s13-5.8,13-13C288.2,250.2,282.4,244.3,275.2,244.3z
		 M281.1,261.9l-1.3,1.3l-4.5-4.5l-4.5,4.5l-1.3-1.3l4.6-4.6l-4.6-4.5l1.3-1.3l4.5,4.6l4.5-4.6l1.3,1.3l-4.6,4.5L281.1,261.9z"/>
</g>
</svg>
