<?xml version="1.0" encoding="UTF-8"?>
<!-- Generator: Adobe Illustrator 15.0.2, SVG Export Plug-In . SVG Version: 6.00 Build 0)  -->
<!DOCTYPE svg PUBLIC "-//W3C//DTD SVG 1.1//EN" "http://www.w3.org/Graphics/SVG/1.1/DTD/svg11.dtd">
<svg xmlns="http://www.w3.org/2000/svg" xmlns:xlink="http://www.w3.org/1999/xlink" version="1.1" id="Layer_1" x="0px" y="0px" width="512px" height="512px" viewBox="0 0 512 512" enable-background="new 0 0 512 512" xml:space="preserve">
<path d="M384,256c0-50.208-29.014-93.583-71.111-114.486v62.861l69.834,69.833C383.583,268.223,384,262.118,384,256z M455.111,256  c0,26.736-5.834,51.917-15.361,75.098l43.098,43.097C501.333,338.777,512,298.667,512,256c0-121.743-85.194-223.569-199.111-249.458  v58.736C395.083,89.743,455.111,165.833,455.111,256z M36.264,0L0,36.264l134.402,134.403H0v170.666h113.777L256,483.556V292.264  l121.027,121.042c-19.055,14.639-40.527,26.444-64.139,33.556v58.736c39.111-8.959,74.806-26.875,104.819-51.486L475.736,512  L512,475.736l-256-256L36.264,0z M256,28.444l-59.451,59.451L256,147.34V28.444z" fill="#000000"/>
</svg>
